<?xml version="1.0" encoding="UTF-8"?>
<svg width="248px" height="47px" viewBox="0 0 248 47" version="1.1" xmlns="http://www.w3.org/2000/svg" xmlns:xlink="http://www.w3.org/1999/xlink">
    <title>avangernews</title>
    <g id="Page-1" stroke="none" stroke-width="1" fill="none" fill-rule="evenodd">
        <g id="Artboard" transform="translate(-412.000000, -281.000000)" fill="#666666" fill-rule="nonzero">
            <g id="Group-2" transform="translate(411.997135, 281.011885)">
                <path d="M156.182865,8.8881147 C155.722865,9.6781147 155.882865,10.4081147 155.882865,11.1081147 C155.872865,18.7881147 155.832865,26.4681147 155.912865,34.1581147 C155.922865,35.7481147 155.452865,36.2081147 153.872865,36.1581147 C150.502865,36.0481147 150.502865,36.1281147 150.502865,32.7081147 C150.502865,22.5081147 150.532865,12.2981147 150.472865,2.0981147 C150.472865,0.638114702 150.882865,0.298114702 152.362865,0.108114702 C156.272865,-0.411885298 158.522865,0.918114702 160.162865,4.6581147 C162.492865,9.9681147 165.522865,14.9781147 168.262865,20.1081147 C168.562865,20.6681147 168.722865,21.3581147 169.372865,21.7081147 C169.932865,21.0781147 169.702865,20.3281147 169.702865,19.6481147 C169.722865,13.8281147 169.762865,8.0081147 169.682865,2.1881147 C169.662865,0.618114702 170.132865,0.0881147021 171.722865,0.148114702 C175.742865,0.298114702 175.062865,-0.251885298 175.082865,3.4781147 C175.112865,13.6781147 175.102865,23.8881147 175.072865,34.0881147 C175.072865,34.7681147 175.562865,35.7181147 174.492865,36.0981147 C173.132865,36.5781147 170.792865,36.0381147 170.302865,35.1181147 C167.882865,30.5581147 165.482865,25.9981147 163.082865,21.4281147 C161.152865,17.7681147 159.232865,14.0981147 157.292865,10.4481147 C157.022865,9.9281147 156.862865,9.3281147 156.192865,8.9081147 L156.182865,8.8881147 Z" id="Path"></path>
                <path d="M93.6028647,35.3081147 C93.2628647,35.0881147 93.0328647,34.9181147 92.7728647,34.7681147 C90.0028647,33.1581147 89.6328647,29.8181147 92.2928647,28.0281147 C93.8928647,26.9481147 93.6428647,26.4681147 92.6628647,25.0981147 C90.6328647,22.2481147 90.1228647,18.9781147 91.7228647,15.7381147 C93.3628647,12.4081147 96.3728647,11.0681147 99.9128647,10.7181147 C100.152865,10.6981147 100.392865,10.7181147 100.632865,10.7081147 C102.442865,10.5681147 103.972865,11.6781147 105.612865,11.9081147 C107.192865,12.1281147 108.682865,10.5481147 110.532865,10.6381147 C111.742865,10.6881147 112.362865,10.9581147 112.182865,12.2481147 C112.052865,13.2381147 112.732865,14.6981147 110.702865,14.5281147 C109.252865,14.4081147 108.672865,14.9281147 109.212865,16.5581147 C111.652865,23.9881147 106.122865,30.2181147 98.3828647,28.7581147 C97.3728647,28.5681147 96.7628647,28.8581147 96.1328647,29.4081147 C94.9428647,30.4481147 95.0728647,31.3881147 96.5428647,31.9481147 C97.8928647,32.4581147 99.3228647,32.6881147 100.772865,32.6581147 C103.332865,32.5981147 105.772865,33.1781147 108.132865,34.0681147 C110.562865,34.9781147 112.012865,37.1381147 112.142865,39.7181147 C112.272865,42.5281147 111.062865,44.5381147 108.502865,45.5181147 C103.502865,47.4281147 98.4328647,47.4481147 93.4028647,45.5881147 C91.0428647,44.7081147 89.4628647,43.0981147 89.3528647,40.4081147 C89.2528647,37.8781147 90.9328647,36.6881147 92.8628647,35.6781147 C93.0728647,35.5681147 93.2828647,35.4581147 93.5928647,35.2881147 L93.6028647,35.3081147 Z M100.562865,24.8181147 C103.392865,24.8181147 105.092865,22.9081147 105.082909,19.7281147 C105.072865,16.6581147 103.382865,14.8081147 100.602865,14.8180744 C97.4928647,14.8180744 95.6628647,16.6381147 95.6328647,19.7181147 C95.6028647,22.9381147 97.4228647,24.8181147 100.572865,24.8181147 L100.562865,24.8181147 Z M100.602865,42.7981147 C101.992865,42.6781147 103.422865,42.9081147 104.842865,42.4781147 C106.142865,42.0881147 107.302865,41.5981147 107.352865,40.0881147 C107.402865,38.5581147 106.212865,37.9681147 104.972865,37.5481147 C102.852865,36.8381147 100.642865,36.6681147 98.4428647,36.5281147 C97.0928647,36.4481147 95.8828647,37.1681147 94.9528647,38.1281147 C93.3828647,39.7681147 93.9628647,41.6681147 96.1128647,42.4381147 C97.5828647,42.9681147 99.0828647,42.6581147 100.602865,42.7881147 L100.602865,42.7981147 Z" id="Shape"></path>
                <path d="M23.1428647,36.1081147 C21.3628647,36.6581147 20.5828647,35.6481147 20.1828647,33.7181147 C19.7128647,31.4381147 18.8928647,29.2281147 18.3028647,26.9681147 C18.0528647,26.0181147 17.6528647,25.5581147 16.5828647,25.5881147 C14.1828647,25.6581147 11.7828647,25.6481147 9.38286467,25.5881147 C8.44286467,25.5681147 7.99286467,25.9081147 7.75286467,26.8281147 C7.04286467,29.4881147 6.19286467,32.1181147 5.50286467,34.7881147 C5.25286467,35.7681147 4.85286467,36.1281147 3.80286467,36.1381147 C-0.537135327,36.1881147 -0.507135327,36.2381147 0.692864673,32.0381147 C3.55286467,22.0181147 6.43286467,11.9981147 9.23286467,1.9481147 C9.63286467,0.518114702 10.2728647,0.0881147021 11.7228647,0.118114702 C15.8428647,0.198114702 15.8228647,0.138114702 16.9228647,4.0181147 C19.7228647,13.8781147 22.5428647,23.7281147 25.3428647,33.5781147 C25.8228647,35.2581147 25.0828647,36.0981147 23.1328647,36.0981147 L23.1428647,36.1081147 Z M12.7628647,9.5981147 C12.1328647,11.7381147 11.4828647,13.8781147 10.8628647,16.0181147 C9.25286467,21.5581147 9.43286467,21.7481147 15.3428647,21.0581147 C16.4228647,20.9281147 16.4628647,20.4381147 16.2228647,19.6181147 C15.5828647,17.4381147 14.9628647,15.2581147 14.3228647,13.0781147 C13.9828647,11.9181147 13.6128647,10.7581147 13.2528647,9.5981147 L12.7628647,9.5981147 Z" id="Shape"></path>
                <path d="M213.462865,20.8581147 C212.452865,25.2181147 211.492865,29.4081147 210.492865,33.5881147 C210.292865,34.4281147 210.462865,35.7581147 209.602865,35.9581147 C208.242865,36.2781147 206.742865,36.0881147 205.312865,36.0081147 C204.852865,35.9781147 204.842865,35.3681147 204.732865,34.9781147 C202.672865,27.4081147 200.632865,19.8281147 198.552865,12.2681147 C198.252865,11.1881147 198.662865,11.0881147 199.562865,11.0581147 C203.132865,10.9281147 203.142865,10.9081147 204.062865,14.3381147 C205.022865,17.8681147 205.952865,21.3981147 206.932865,24.9181147 C207.112865,25.5781147 207.092865,26.3481147 207.932865,27.0781147 C208.482865,24.7481147 209.002865,22.5881147 209.502865,20.4281147 C210.122865,17.7481147 210.792865,15.0681147 211.302865,12.3581147 C211.532865,11.1481147 212.212865,10.9081147 213.192865,11.0881147 C214.212865,11.2681147 215.622865,10.3381147 216.032865,12.2981147 C216.972865,16.7581147 218.052865,21.1781147 219.092865,25.6081147 C219.192865,26.0481147 219.092865,26.5981147 219.852865,26.9281147 C220.492865,24.6181147 221.132865,22.3481147 221.742865,20.0781147 C222.432865,17.5381147 223.152865,14.9981147 223.762865,12.4281147 C224.022865,11.3281147 224.542865,11.0481147 225.622865,11.0481147 C229.152865,11.0581147 229.152865,11.0181147 228.202865,14.4981147 C226.402865,21.0881147 224.562865,27.6581147 222.832865,34.2681147 C222.472865,35.6481147 221.972865,36.4081147 220.442865,36.1181147 C219.982865,36.0281147 219.472865,36.0381147 219.012865,36.1181147 C217.722865,36.3181147 217.272865,35.7381147 217.012865,34.4981147 C216.172865,30.4481147 215.202865,26.4381147 214.272865,22.4081147 C214.172865,21.9481147 214.162865,21.4481147 213.482865,20.8581147 L213.462865,20.8581147 Z" id="Path"></path>
                <path d="M59.9028647,33.8881147 C57.9328647,35.6681147 56.0528647,36.5381147 53.7628647,36.5281999 C50.0328647,36.5081147 47.9028647,35.3281147 46.8528647,32.5081147 C45.6528647,29.3081147 46.5428647,25.5681147 49.0128647,23.4481147 C50.4428647,22.2181147 52.1528647,21.4681147 53.9128647,20.8681147 C55.2128647,20.4281147 56.5628647,20.1181147 57.8728647,19.7281147 C58.7628647,19.4681147 60.0128647,19.7081147 59.9428647,18.1181147 C59.8728647,16.5881147 59.3728647,15.3081147 57.7728647,15.0081147 C55.1828647,14.5281147 52.6328647,14.7881147 50.9428647,17.0981147 C49.6928647,18.8081147 48.9428647,17.2481147 48.0228647,16.8881147 C46.7728647,16.3881147 47.4028647,15.5781147 47.8228647,14.8681147 C49.7328647,11.6781147 54.0528647,10.0381147 58.4428647,10.8481147 C62.5628647,11.6081147 64.3228647,13.3881147 64.5428647,17.5981147 C64.7528647,21.4881147 64.6428647,25.3981147 64.6628647,29.2881147 C64.6728647,31.2081147 64.5828647,33.1381147 65.0828647,35.0181147 C65.2828647,35.7781147 65.1128647,36.1681147 64.2528647,36.1081147 C63.5928647,36.0681147 62.9228647,36.0381147 62.2728647,36.1081147 C60.8528647,36.2881147 59.8928647,35.8881147 59.8828647,33.8681147 L59.9028647,33.8881147 Z M59.9428647,26.5281147 C59.9428647,26.0481147 59.8928647,25.5681147 59.9528647,25.0981147 C60.1528647,23.5281147 59.5128647,23.2381147 58.1028647,23.6981147 C56.5728647,24.1981147 55.0128647,24.6081147 53.5928647,25.3881147 C51.9228647,26.3081147 51.1328647,27.7581147 51.1428647,29.6581147 C51.1628647,31.5981147 52.2728647,32.6581147 54.1928647,32.5581147 C57.6128647,32.3781147 59.9428647,29.9381147 59.9428647,26.5381147 L59.9428647,26.5281147 Z" id="Shape"></path>
                <path d="M124.992865,24.8981147 C123.072865,24.8981147 121.152865,24.9281147 119.232865,24.8881147 C118.222865,24.8681147 117.852865,25.2181147 117.932865,26.2581147 C118.132865,29.1981147 119.602865,31.4581147 121.872865,32.1781147 C124.362865,32.9681147 126.932865,32.2081147 128.732865,29.8481147 C129.952865,28.2481147 130.532865,29.8781147 131.352865,30.1581147 C132.442865,30.5381147 132.122865,31.2081147 131.622865,31.9581147 C129.102865,35.7281147 125.532865,37.1881147 121.042865,36.2081147 C116.582865,35.2281147 114.042865,32.5081147 113.412865,27.5881147 C112.942865,23.8881147 112.982865,20.1681147 114.342865,16.5781147 C115.832865,12.6681147 118.852865,10.6681147 123.272865,10.6879662 C126.972865,10.7081147 129.782865,12.8281147 131.162865,16.6481147 C131.962865,18.8781147 132.202865,21.1881147 132.292865,23.5381147 C132.332865,24.5881147 131.952865,24.9081147 130.952865,24.8881147 C128.972865,24.8381147 126.992865,24.8781147 125.012865,24.8781147 L124.992865,24.8981147 Z M122.752865,20.7981147 C123.892865,20.7981147 125.032865,20.7581147 126.162865,20.8081147 C127.152865,20.8481147 127.372865,20.3781147 127.302865,19.4781147 C127.072865,16.8181147 125.262865,14.8281147 122.992865,14.818075 C120.422865,14.8081147 118.522865,16.6881147 118.222865,19.4781147 C118.132865,20.3681147 118.322865,20.8481147 119.332865,20.8081147 C120.472865,20.7581147 121.602865,20.7981147 122.742865,20.7981147 L122.752865,20.7981147 Z" id="Shape"></path>
                <path d="M190.272865,24.8981147 C188.352865,24.8981147 186.432865,24.9281147 184.512865,24.8881147 C183.542865,24.8681147 183.102865,25.1481147 183.172865,26.2281147 C183.352865,29.1281147 184.812865,31.4281147 187.082865,32.1681147 C189.562865,32.9781147 192.182865,32.2181147 193.952865,29.8781147 C195.242865,28.1781147 195.862865,29.9281147 196.712865,30.2481147 C197.922865,30.7081147 197.182865,31.4581147 196.772865,32.0781147 C194.392865,35.6681147 191.022865,37.0081147 186.832865,36.3681147 C182.472865,35.7081147 179.812865,33.1081147 178.922865,28.8581147 C178.042865,24.6881147 178.122865,20.5081147 179.642865,16.4581147 C181.072865,12.6381147 184.132865,10.6781147 188.472865,10.6979632 C192.122865,10.7181147 194.942865,12.7581147 196.322865,16.4581147 C197.152865,18.6681147 197.402865,20.9881147 197.522865,23.3381147 C197.582865,24.5181147 197.252865,24.9581147 196.042865,24.9081147 C194.122865,24.8281147 192.202865,24.8881147 190.282865,24.8881147 L190.272865,24.8981147 Z M187.922865,20.7781147 C189.122865,20.7781147 190.322865,20.7781147 191.512865,20.7781147 C192.112865,20.7781147 192.502865,20.6481147 192.582865,19.9081147 C192.842865,17.1481147 190.362865,14.5881147 187.602865,14.8281147 C185.612865,15.0081147 184.222865,16.4381147 183.592865,18.8581147 C183.262865,20.1481147 183.382865,20.9681147 185.042865,20.7981147 C185.992865,20.6981147 186.952865,20.7781147 187.912865,20.7781147 L187.922865,20.7781147 Z" id="Shape"></path>
                <path d="M73.4128647,13.4581147 C74.5428647,13.3081147 74.9428647,12.7281147 75.4428647,12.3281147 C77.3128647,10.8581147 79.4428647,10.4381147 81.7228647,10.7681147 C85.0528647,11.2681147 87.0828647,13.5181147 87.1228647,16.9381147 C87.2028647,22.8781147 87.1228647,28.8181147 87.1730208,34.7581147 C87.1828647,35.9181147 86.7128647,36.1281147 85.6828647,36.1381147 C82.3328647,36.1681147 82.3328647,36.1981147 82.3328647,32.8681147 C82.3328647,28.2481147 82.3428647,23.6281147 82.3328647,19.0081147 C82.3228647,16.2381147 81.0028647,14.8081147 78.5428647,14.8281147 C75.6628647,14.8481147 73.5428647,16.6981147 73.5428647,19.2181147 C73.5428647,24.2581147 73.4928647,29.2981147 73.5728647,34.3381147 C73.5928647,35.7081147 73.2728647,36.2381147 71.7928647,36.1581147 C68.5628647,35.9781147 68.8128647,36.7181147 68.8028647,33.1781147 C68.7828647,26.5181147 68.8428647,19.8581147 68.7728647,13.1981147 C68.7528647,11.6281147 69.0928647,10.7581147 70.8428647,11.0981147 C70.9028647,11.1081147 70.9628647,11.0981147 71.0228647,11.0981147 C72.6128647,11.0081147 74.2928647,10.7981147 73.4328647,13.4681147 L73.4128647,13.4581147 Z" id="Path"></path>
                <path d="M35.1028647,28.4281147 C35.8028647,26.1481147 36.5028647,23.8781147 37.1828647,21.5981147 C38.0628647,18.6681147 38.9828647,15.7581147 39.7528647,12.7981147 C40.1028647,11.4681147 40.6828647,10.9981147 42.0928647,11.0481147 C45.3528647,11.1481147 45.3528647,11.0781147 44.3928647,14.2081147 C42.3228647,20.9681147 40.2228647,27.7181147 38.2028647,34.4881147 C37.8328647,35.7181147 37.3128647,36.1781147 35.9728647,36.1481147 C32.0328647,36.0681147 32.0228647,36.1381147 30.8728647,32.3181147 C28.9128647,25.8381147 26.9928647,19.3481147 24.9828647,12.8881147 C24.5628647,11.5281147 24.6228647,10.9981147 26.2628647,11.0481147 C29.4928647,11.1381147 29.5028647,11.0481147 30.4128647,14.1481147 C31.6628647,18.3981147 32.9028647,22.6581147 34.1628647,26.9081147 C34.3128647,27.4181147 34.5028647,27.9081147 34.6728647,28.4181147 L35.0928647,28.4181147 L35.1028647,28.4281147 Z" id="Path"></path>
                <path d="M239.462865,36.4781147 C235.832865,36.5781147 232.932865,35.2881147 230.912865,32.1581147 C230.452865,31.4481147 230.492865,31.0881147 231.222865,30.5981147 C232.582865,29.6981147 233.642865,28.9281147 235.032865,30.8081147 C236.372865,32.6281147 238.582865,32.9381147 240.762865,32.6081147 C242.012865,32.4181147 243.052865,31.7681147 243.322865,30.4081147 C243.622865,28.9381147 243.492865,27.5381147 242.202865,26.4781147 C241.342865,25.7781147 240.332865,25.4381147 239.292865,25.1281147 C237.972865,24.7381147 236.642865,24.3681147 235.382865,23.8281147 C231.822865,22.3081147 230.272865,19.7581147 230.662865,16.2181147 C230.962865,13.4381147 233.102865,11.4681147 236.792865,10.8381147 C240.362865,10.2281147 243.602865,10.9481147 246.152865,13.7281147 C246.602865,14.2181147 247.482865,14.8481147 246.472865,15.4381147 C245.632865,15.9381147 245.072865,17.8081147 243.612865,16.3481147 C242.102865,14.8381147 240.282865,14.2781147 238.202865,14.4981147 C236.882865,14.6381147 235.712865,15.1581147 235.332865,16.5581147 C234.932865,18.0581147 235.452865,19.2381147 236.792865,20.0881147 C238.292865,21.0381147 239.992865,21.3881147 241.652865,21.8781147 C245.722865,23.0781147 247.772865,25.3281147 247.982865,28.7581147 C248.242865,32.9481147 245.202865,36.1581147 240.722865,36.4381147 C240.302865,36.4681147 239.882865,36.4381147 239.462865,36.4381147 L239.462865,36.4781147 Z" id="Path"></path>
                <path d="M140.892865,14.4781147 C142.132865,12.3781147 143.672865,11.1081147 145.802865,10.8181147 C146.562865,10.7181147 147.692865,10.2381147 148.062865,11.1581147 C148.472865,12.1781147 148.382865,13.4081147 148.052865,14.5181147 C147.912865,14.9781147 147.342865,14.8381147 146.932865,14.8781147 C143.082865,15.1981147 140.312865,18.1681147 140.522865,22.0881147 C140.742865,26.2181147 140.532865,30.3581147 140.592865,34.4981147 C140.612865,35.6981147 140.342865,36.1981147 139.012865,36.1481147 C135.442865,35.9981147 135.842865,36.6881147 135.822865,33.0181147 C135.792865,26.3581147 135.862865,19.7081147 135.782865,13.0481147 C135.762865,11.4681147 136.232865,10.9781147 137.822865,11.0481147 C140.402865,11.1781147 140.402865,11.0781147 140.592865,13.6581147 C140.592865,13.7681147 140.672865,13.8781147 140.882865,14.4681147 L140.892865,14.4781147 Z" id="Path"></path>
            </g>
        </g>
    </g>
</svg>