<?xml version="1.0" encoding="UTF-8"?>
<svg width="218px" height="37px" viewBox="0 0 218 37" version="1.1" xmlns="http://www.w3.org/2000/svg" xmlns:xlink="http://www.w3.org/1999/xlink">
    <title>btchaber</title>
    <g id="Page-1" stroke="none" stroke-width="1" fill="none" fill-rule="evenodd">
        <g id="Artboard" transform="translate(-671.000000, -391.000000)" fill-rule="nonzero">
            <g id="Group-4" transform="translate(671.010000, 391.990000)">
                <path d="M8.96,18.01 C11.07,18.66 11.0301015,20.88 11.0301015,20.88 L11.0301015,31.22 C10.98,33.69 9.01,35.66 6.55,35.66 L0,35.66 L0,0.37 L6.55,0.37 C9.02,0.37 10.98,2.34 11.0301015,4.81 L11.0301015,15.15 C11.0301015,15.15 11.08,17.37 8.96,18.02 L8.96,18.01 Z M7.4,14.28 L7.4,5.81 C7.4,4.5 6.49,4 5.54,4 L3.57,4 L3.57,16.35 L5.54,16.35 C6.5,16.35 7.4,15.9 7.4,14.28 Z M7.4,30.21 L7.4,21.69 C7.4,20.13 6.49,19.67 5.54,19.67 L3.57,19.67 L3.57,32.07 L5.54,32.07 C6.5,32.07 7.4,31.57 7.4,30.2 L7.4,30.21 Z M42.86,0.36 L41.65,2.98 C41.45,3.43 40.89,3.94 39.74,3.94 L36.92,3.94 C36.42,3.94 36.06,4.34 36.01,4.8 L36.01,35.66 L33.44,35.66 C32.58,35.66 32.43,35.16 32.43,34.9 L32.43,3.94 L27.34,3.94 L27.34,1.47 C27.34,0.87 27.84,0.36 28.45,0.36 L42.86,0.36 Z M69.1,31.52 C69.1,33.94 67.19,35.91 64.77,36.01 L62.55,36.01 C60.03,36.01 58.02,33.99 58.02,31.52 L58.02,4.49 C58.02,2.02 60.03,0 62.55,0 L64.77,0 C67.19,0.05 69.1,2.07 69.1,4.49 L69.1,9.89 C69.1,11.05 68.6,11.6 68.14,11.81 L65.52,13.02 L65.52,5.1 C65.52,4.04 64.66,3.18 63.55,3.18 C62.44,3.18 61.64,4.04 61.64,5.1 L61.64,30.86 C61.64,31.97 62.5,32.83 63.55,32.83 C64.6,32.83 65.52,31.97 65.52,30.86 L65.52,26.12 C65.52,24.96 66.02,24.41 66.48,24.15 C66.78,24 68.19,23.39 69.1,22.99 L69.1,31.52 Z" id="Shape" fill="#B3B3B3"></path>
                <path d="M96.09,0.36 L98.26,0.36 C99.37,0.36 99.72,1.17 99.72,1.77 L99.72,35.65 L96.09,35.65 L96.09,20.27 C96.04,19.82 95.69,19.46 95.23,19.46 L91.3,19.46 L91.3,35.64 L87.67,35.64 L87.67,1.76 C87.67,1.16 88.02,0.35 89.13,0.35 L91.29,0.35 L91.29,14.62 C91.29,15.63 91.69,15.88 92.55,15.88 L96.08,15.88 L96.08,0.35 L96.09,0.36 Z M130.19,35.65 L126.21,35.65 L123.04,11.35 L119.87,35.65 L115.89,35.65 L121.23,0.36 L123.2,0.36 C124.71,0.36 124.96,1.32 125.11,2.28 L130.2,35.66 L130.19,35.65 Z M155.53,18 C157.65,18.65 157.600101,20.87 157.600101,20.87 L157.600101,31.21 C157.55,33.68 155.58,35.65 153.12,35.65 L146.57,35.65 L146.57,0.36 L153.12,0.36 C155.59,0.36 157.55,2.33 157.600101,4.8 L157.600101,15.14 C157.600101,15.14 157.65,17.36 155.53,18.01 L155.53,18 Z M153.97,14.27 L153.97,5.8 C153.97,4.49 153.06,3.99 152.11,3.99 L150.15,3.99 L150.15,16.34 L152.11,16.34 C153.07,16.34 153.97,15.89 153.97,14.27 Z M153.97,30.2 L153.97,21.68 C153.97,20.12 153.06,19.66 152.11,19.66 L150.15,19.66 L150.15,32.06 L152.11,32.06 C153.07,32.06 153.97,31.56 153.97,30.19 L153.97,30.2 Z M181.87,32.07 L189.43,32.07 C189.03,32.98 188.42,34.39 188.27,34.69 C188.02,35.14 187.46,35.65 186.31,35.65 L178.25,35.65 L178.25,1.36 C178.3,0.81 178.75,0.35 179.36,0.35 L188.78,0.35 L187.57,2.97 C187.37,3.42 186.81,3.98 185.66,3.98 L182.74,3.98 C182.24,3.98 181.88,4.33 181.88,4.84 L181.88,15.33 L187.32,15.33 C186.92,16.24 186.31,17.7 186.16,18 C185.91,18.45 185.4,18.96 184.25,18.96 L182.74,18.96 C182.29,18.96 181.88,19.36 181.88,19.82 L181.88,32.07 L181.87,32.07 Z M217.98,35.65 L214.35,35.65 L214.35,22.74 C214.35,21.03 213.44,20.47 212.49,20.47 L210.58,20.47 L210.58,35.65 L206.95,35.65 L206.95,0.36 L213.55,0.36 C215.97,0.36 217.98,2.33 217.98,4.8 L217.98,15.69 C217.98,15.69 218.13,18.46 216.67,18.82 C218.08,19.53 217.98,22.15 217.98,22.15 L217.98,35.66 L217.98,35.65 Z M210.58,17.05 L212.49,17.05 C213.45,17.05 214.35,16.65 214.35,15.03 L214.35,5.55 C214.35,4.24 213.44,3.74 212.49,3.74 L210.58,3.74 L210.58,17.05 Z" id="Shape" fill="#000000"></path>
            </g>
        </g>
    </g>
</svg>