<?xml version="1.0" encoding="UTF-8"?>
<svg width="250px" height="44px" viewBox="0 0 250 44" version="1.1" xmlns="http://www.w3.org/2000/svg" xmlns:xlink="http://www.w3.org/1999/xlink">
    <title>investing-com</title>
    <g id="Page-1" stroke="none" stroke-width="1" fill="none" fill-rule="evenodd">
        <g id="Artboard" transform="translate(-820.000000, -281.000000)" fill-rule="nonzero">
            <g id="Group-3" transform="translate(820.000000, 281.000000)">
                <path d="M179.48,13.41 L179.48,12.05 C182.04,11.34 184.57,10.63 187.07,9.94 C187.33,10.25 187.25,10.53 187.25,10.8 C187.25,17.93 187.26,25.07 187.25,32.2 C187.25,35.38 186.42,38.29 184.07,40.58 C182.06,42.54 179.56,43.49 176.83,43.82 C174.11,44.15 171.4,44.04 168.77,43.17 C165.91,42.23 163.91,40.42 162.94,37.39 C165.35,36.72 167.71,36.06 169.98,35.43 C170.28,35.52 170.29,35.73 170.36,35.88 C171.5,38.25 173.92,39.29 176.42,38.44 C177.82,37.96 178.62,36.9 179.05,35.54 C179.53,34.03 179.44,32.47 179.41,30.76 C178.8,31.47 178.31,32.09 177.69,32.59 C175.62,34.28 173.23,34.56 170.7,34.14 C166.48,33.45 163.84,30.93 162.7,26.88 C161.7,23.32 161.75,19.76 163.2,16.29 C165.16,11.6 170.32,9.06 175.17,10.38 C176.68,10.79 177.88,11.67 178.86,12.87 C179.02,13.06 179.17,13.25 179.32,13.44 L179.48,13.39 L179.48,13.41 Z M179.58,22.64 C179.58,21.15 179.38,20.01 178.91,18.93 C178.15,17.17 176.75,16.3 174.88,16.26 C173.1,16.22 171.66,16.95 170.91,18.62 C169.88,20.9 169.8,23.25 170.79,25.58 C172.25,29.01 176.76,28.57 178.28,26.57 C179.25,25.3 179.52,23.85 179.57,22.64 L179.58,22.64 Z" id="Shape" fill="#000000"></path>
                <path d="M19.53,35.33 L11.49,35.33 L11.49,12.07 C14.02,11.36 16.57,10.65 19.25,9.91 L19.25,13.88 C20.09,13.1 20.79,12.3 21.71,11.72 C25,9.64 28.44,9.49 31.92,11.09 C34.2,12.14 35.19,14.19 35.65,16.54 C35.84,17.53 35.91,18.54 35.91,19.55 C35.92,24.57 35.91,29.58 35.91,34.6 C35.91,34.82 35.88,35.04 35.86,35.32 L27.95,35.32 C27.73,35.01 27.82,34.67 27.81,34.35 C27.79,29.86 27.77,25.38 27.76,20.89 C27.76,20.36 27.66,19.84 27.52,19.33 C27.17,17.97 26.39,17.02 24.93,16.82 C23.12,16.57 21.51,16.93 20.41,18.55 C19.68,19.61 19.52,20.84 19.51,22.08 C19.5,26.16 19.51,30.24 19.51,34.33 L19.51,35.33 L19.53,35.33 Z" id="Path" fill="#000000"></path>
                <path d="M143.69,13.9 C145.63,11.51 148.07,10.25 150.99,10.09 C153.78,9.94 156.44,10.41 158.38,12.71 C159.65,14.22 160.21,16.05 160.24,17.96 C160.32,23.65 160.29,29.35 160.3,35.05 C160.3,35.12 160.27,35.2 160.23,35.33 L152.36,35.33 C152.15,35.05 152.24,34.73 152.24,34.44 C152.24,30.43 152.24,26.43 152.24,22.42 C152.24,21.26 152.2,20.1 151.84,18.98 C151.43,17.69 150.55,16.97 149.22,16.81 C146.07,16.43 143.98,18.35 143.95,21.71 C143.92,25.92 143.95,30.13 143.94,34.34 L143.94,35.32 L135.91,35.32 L135.91,12.07 C138.45,11.36 141,10.65 143.67,9.91 L143.67,13.9 L143.69,13.9 Z" id="Path" fill="#000000"></path>
                <path d="M84.7,22.88 C79.1,24.44 73.5,25.99 67.83,27.57 C68.35,28.91 69.3,29.74 70.58,30.19 C73,31.03 75.35,30.62 77.65,29.7 C79.24,29.06 80.58,28.05 81.71,26.75 C81.81,26.64 81.87,26.49 82.14,26.5 C82.83,28.37 83.52,30.27 84.23,32.18 C83.68,32.77 83.06,33.15 82.43,33.49 C78.1,35.88 73.51,36.69 68.66,35.6 C63.52,34.44 60.04,30.58 59.35,25.34 C58.74,20.7 59.87,16.64 63.39,13.4 C68.02,9.15 75.98,8.89 80.72,12.82 C83.37,15.01 85.13,19.39 84.7,22.88 Z M76.98,19.55 C76.45,16.7 73.78,15 71.14,15.7 C69.01,16.26 67.51,18.19 67.25,20.74 C67.2,21.22 67.02,21.72 67.29,22.25 C70.53,21.35 73.74,20.46 76.98,19.56 L76.98,19.55 Z" id="Shape" fill="#000000"></path>
                <path d="M108.2,16.37 C105.82,17.03 103.53,17.66 101.29,18.28 C101,18.03 101.01,17.75 100.93,17.53 C100.6,16.66 100.04,16.02 99.17,15.68 C97.88,15.18 96.56,15.14 95.25,15.51 C94.53,15.71 93.9,16.1 93.82,16.98 C93.74,17.82 94.3,18.28 94.92,18.63 C95.85,19.16 96.87,19.42 97.91,19.65 C99.8,20.08 101.73,20.28 103.59,20.82 C106.48,21.66 108.47,23.44 108.88,26.47 C109.32,29.73 108.06,32.37 105.2,34.09 C101.97,36.03 98.4,36.27 94.75,35.94 C92.23,35.71 89.84,35.05 87.84,33.4 C86.37,32.18 85.48,30.62 85.16,28.61 C87.45,27.97 89.71,27.34 91.89,26.73 C92.13,26.84 92.13,26.98 92.16,27.1 C92.94,30.8 96.42,31.37 98.85,30.52 C99.18,30.41 99.51,30.26 99.8,30.07 C101.31,29.1 101.24,27.25 99.65,26.44 C98.17,25.68 96.52,25.52 94.94,25.15 C93.13,24.73 91.3,24.4 89.58,23.64 C87.09,22.54 85.8,20.63 85.71,17.93 C85.62,15.39 86.62,13.36 88.8,12.01 C91.54,10.31 94.61,9.96 97.74,10.07 C100.3,10.16 102.8,10.61 105.04,11.96 C106.68,12.95 107.82,14.32 108.21,16.37 L108.2,16.37 Z" id="Path" fill="#000000"></path>
                <path d="M52.85,35.35 L43.54,35.35 C40.82,27.19 38.11,19.03 35.37,10.79 L43.79,10.79 C45.26,16.1 46.74,21.43 48.21,26.76 C48.26,26.76 48.31,26.76 48.36,26.77 C49.85,21.45 51.34,16.13 52.84,10.79 L61.07,10.79 C58.32,19 55.59,27.16 52.85,35.36 L52.85,35.35 Z" id="Path" fill="#000000"></path>
                <path d="M110.24,6.22 C112.91,5.48 115.52,4.76 118.24,4.01 L118.24,10.73 L124.08,10.73 C123.57,12.57 123.1,14.27 122.61,16.05 L118.41,16.05 C118.23,16.37 118.28,16.63 118.28,16.87 C118.28,20.22 118.28,23.57 118.28,26.92 C118.28,28.72 118.92,29.39 120.7,29.46 C121.25,29.48 121.81,29.46 122.36,29.41 C122.88,29.37 123.4,29.28 124.06,29.2 C123.49,31.29 122.95,33.29 122.39,35.35 C120.24,35.64 118.11,35.71 115.98,35.45 C114.88,35.32 113.8,35.06 112.83,34.48 C111.27,33.54 110.7,32 110.4,30.32 C110.23,29.35 110.2,28.37 110.2,27.38 C110.2,20.58 110.2,13.78 110.2,6.97 C110.2,6.75 110.22,6.52 110.24,6.22 Z" id="Path" fill="#000000"></path>
                <path d="M0,4.51 C2.9,3.71 5.78,2.91 8.72,2.09 L8.72,35.33 L0,35.33 L0,4.51 Z" id="Path" fill="#000000"></path>
                <path d="M133.16,35.34 L125.28,35.34 C125.1,34.78 125.06,13.07 125.24,12.11 C127.83,11.39 130.46,10.66 133.16,9.91 L133.16,35.34 Z" id="Path" fill="#000000"></path>
                <path d="M228.42,19.51 C228.97,19.28 229.53,19.08 230.2,19.02 L230.2,21.59 C231.46,19.93 232.98,18.81 235.1,18.74 C237.27,18.67 238.91,19.51 239.79,21.6 C240.12,21.52 240.17,21.21 240.32,21 C242.26,18.22 246.91,17.89 248.88,20.41 C249.66,21.4 249.95,22.59 249.97,23.81 C250.01,27.54 249.98,31.27 249.98,35 C249.98,35.07 249.95,35.15 249.92,35.29 C249.33,35.45 248.72,35.38 248.12,35.34 C247.89,35.05 247.98,34.73 247.98,34.44 C247.98,31.21 247.98,27.99 247.98,24.76 C247.98,24.36 247.96,23.95 247.9,23.56 C247.66,21.75 246.9,20.84 245.43,20.56 C243.43,20.18 241.87,20.82 241.01,22.35 C240.35,23.53 240.19,24.83 240.19,26.15 C240.18,28.9 240.19,31.64 240.19,34.39 L240.19,35.28 C239.5,35.44 238.91,35.38 238.32,35.34 C238.08,35.06 238.18,34.74 238.18,34.45 C238.18,31.22 238.18,28 238.18,24.77 C238.18,24.52 238.18,24.26 238.18,24.01 C238.08,22.1 237.28,20.89 235.91,20.56 C234.06,20.11 232.21,20.89 231.3,22.48 C230.61,23.68 230.41,24.99 230.4,26.34 C230.39,29.01 230.4,31.68 230.4,34.36 C230.4,34.66 230.45,34.97 230.31,35.29 C229.72,35.48 229.1,35.35 228.43,35.36 L228.43,19.5 L228.42,19.51 Z" id="Path" fill="#000000"></path>
                <path d="M211.12,26.79 C211.16,24.64 211.79,22.19 213.89,20.37 C217.25,17.46 222.52,18.48 224.63,22.41 C226.44,25.79 226.11,30.49 223.87,33.28 C220.77,37.15 214.53,36.52 212.25,32.1 C211.48,30.62 211.13,29.1 211.13,26.78 L211.12,26.79 Z M223.75,27.26 C223.75,25.8 223.46,24.41 222.76,23.12 C220.94,19.77 216.59,19.52 214.43,22.65 C212.69,25.17 212.69,29.35 214.41,31.89 C216.56,35.04 220.9,34.83 222.74,31.47 C223.46,30.16 223.75,28.74 223.75,27.26 Z" id="Shape" fill="#000000"></path>
                <path d="M207.34,29.6 C208.01,29.63 208.58,29.87 209.15,30.09 C208.63,33.83 205.9,36.06 202.49,35.81 C199.27,35.57 197.17,33.81 196.19,30.79 C195.03,27.18 195.33,23.73 197.95,20.81 C200.67,17.79 206,18.1 208.14,21.29 C208.59,21.95 208.91,22.78 209.06,23.73 C208.49,24.01 207.89,24.19 207.21,24.25 C207.03,23.78 206.9,23.32 206.7,22.89 C205.25,19.92 201.47,19.57 199.24,22.19 C197.05,24.75 197.07,29.84 199.28,32.4 C200.48,33.8 202.01,34.38 203.8,33.99 C205.53,33.6 206.5,32.34 207.04,30.72 C207.16,30.37 207.23,30 207.33,29.61 L207.34,29.6 Z" id="Path" fill="#000000"></path>
                <path d="M133.04,0 L133.04,6.58 C130.49,7.29 127.94,8 125.3,8.74 L125.3,2.15 C127.81,1.45 130.35,0.75 133.04,0 Z" id="Path" fill="#AEAEAE"></path>
                <path d="M193.44,32 L193.44,35.32 L190.89,35.32 L190.89,32.05 C191.73,31.92 192.54,32 193.44,32 Z" id="Path" fill="#000000"></path>
            </g>
        </g>
    </g>
</svg>