<?xml version="1.0" encoding="UTF-8"?>
<svg width="279px" height="46px" viewBox="0 0 279 46" version="1.1" xmlns="http://www.w3.org/2000/svg" xmlns:xlink="http://www.w3.org/1999/xlink">
    <title>panoramacrypto</title>
    <g id="Page-1" stroke="none" stroke-width="1" fill="none" fill-rule="evenodd">
        <g id="Artboard" transform="translate(-248.000000, -392.000000)" fill-rule="nonzero">
            <g id="Group-5" transform="translate(248.010000, 392.010000)">
                <path d="M58.89,14.53 C59.98,15.17 60.87,16.09 61.48,17.21 C62.13,18.45 62.46,19.83 62.43,21.24 C62.46,22.64 62.13,24.03 61.48,25.27 C60.88,26.39 59.98,27.32 58.89,27.95 C57.79,28.58 56.54,28.91 55.27,28.89 C54.53,28.92 53.79,28.8 53.09,28.54 C52.4,28.27 51.76,27.86 51.23,27.34 L51.23,33.95 L46.09,33.95 L46.09,13.84 L50.97,13.84 L50.97,15.32 C51.92,14.17 53.35,13.6 55.27,13.6 C56.54,13.59 57.79,13.91 58.89,14.54 L58.89,14.53 Z M56.4,23.82 C57.01,23.11 57.31,22.18 57.26,21.24 C57.31,20.3 57.01,19.37 56.4,18.66 C56.11,18.36 55.77,18.12 55.39,17.96 C55.01,17.8 54.6,17.72 54.19,17.72 C53.78,17.72 53.37,17.8 52.99,17.96 C52.61,18.12 52.27,18.36 51.98,18.66 C51.37,19.37 51.07,20.3 51.12,21.24 C51.07,22.18 51.37,23.11 51.98,23.82 C52.27,24.12 52.61,24.36 52.99,24.52 C53.37,24.68 53.78,24.76 54.19,24.76 C54.6,24.76 55.01,24.68 55.39,24.52 C55.77,24.36 56.11,24.12 56.4,23.82 Z M76.24,15.26 C77.52,16.38 78.16,18.1 78.16,20.41 L78.16,28.67 L73.39,28.67 L73.39,26.73 C72.65,28.17 71.22,28.89 69.08,28.89 C68.07,28.92 67.07,28.72 66.14,28.3 C65.38,27.95 64.72,27.39 64.27,26.67 C63.84,25.97 63.62,25.15 63.63,24.33 C63.6,23.69 63.73,23.06 64.01,22.49 C64.29,21.92 64.71,21.43 65.22,21.06 C66.28,20.28 67.91,19.89 70.12,19.89 L73,19.89 C72.91,18.33 71.88,17.55 69.9,17.55 C69.18,17.55 68.46,17.67 67.78,17.89 C67.12,18.09 66.5,18.41 65.95,18.83 L64.22,15.32 C65.14,14.72 66.14,14.29 67.2,14.04 C68.33,13.75 69.49,13.59 70.66,13.59 C73.1,13.59 74.95,14.15 76.23,15.27 L76.24,15.26 Z M72.07,25.16 C72.53,24.86 72.87,24.4 73.04,23.88 L73.04,22.59 L70.83,22.59 C69.34,22.59 68.6,23.09 68.6,24.1 C68.6,24.31 68.64,24.52 68.73,24.71 C68.82,24.9 68.95,25.07 69.12,25.19 C69.53,25.48 70.02,25.63 70.52,25.6 C71.07,25.61 71.61,25.46 72.08,25.16 L72.07,25.16 Z M95.26,15.2 C96.37,16.3 96.91,17.95 96.91,20.15 L96.91,28.67 L91.8,28.67 L91.8,21.06 C91.8,19.03 91,18.03 89.4,18.03 C89.01,18.01 88.61,18.08 88.25,18.23 C87.89,18.38 87.56,18.61 87.29,18.9 C86.73,19.64 86.45,20.55 86.52,21.48 L86.52,28.67 L81.41,28.67 L81.41,13.83 L86.28,13.83 L86.28,15.45 C86.86,14.85 87.55,14.37 88.33,14.07 C89.15,13.75 90.03,13.58 90.91,13.59 C91.7,13.56 92.5,13.68 93.24,13.96 C93.99,14.24 94.67,14.66 95.25,15.21 L95.26,15.2 Z M103.44,27.9 C102.54,27.42 101.74,26.76 101.1,25.95 C100.46,25.15 99.99,24.22 99.71,23.22 C99.43,22.22 99.36,21.18 99.5,20.16 C99.63,19.14 99.97,18.15 100.49,17.26 C101.2,16.09 102.21,15.15 103.42,14.54 C104.74,13.88 106.19,13.55 107.66,13.57 C109.13,13.55 110.59,13.88 111.91,14.54 C113.12,15.14 114.14,16.08 114.84,17.25 C115.55,18.44 115.91,19.81 115.89,21.2 C115.91,22.59 115.55,23.96 114.85,25.15 C114.14,26.33 113.13,27.28 111.91,27.9 C110.59,28.57 109.13,28.91 107.65,28.88 C106.19,28.9 104.74,28.56 103.43,27.9 L103.44,27.9 Z M109.87,23.8 C110.48,23.08 110.8,22.15 110.76,21.2 C110.81,20.27 110.5,19.34 109.9,18.64 C109.61,18.35 109.27,18.11 108.89,17.95 C108.51,17.79 108.1,17.71 107.7,17.71 C107.3,17.71 106.88,17.79 106.51,17.95 C106.13,18.11 105.79,18.34 105.5,18.64 C104.89,19.35 104.58,20.27 104.63,21.2 C104.57,22.15 104.89,23.09 105.5,23.81 C105.79,24.11 106.13,24.35 106.51,24.51 C106.89,24.67 107.3,24.75 107.71,24.75 C108.12,24.75 108.53,24.67 108.91,24.51 C109.29,24.35 109.63,24.11 109.92,23.81 L109.89,23.81 L109.87,23.8 Z M125.18,14.07 C126.1,13.71 127.08,13.54 128.07,13.56 L128.07,18.25 C127.69,18.2 127.3,18.18 126.92,18.17 C125.98,18.12 125.05,18.44 124.35,19.07 C124.02,19.44 123.76,19.88 123.6,20.35 C123.44,20.82 123.38,21.33 123.42,21.83 L123.42,28.65 L118.27,28.65 L118.27,13.81 L123.14,13.81 L123.14,15.57 C123.68,14.89 124.39,14.38 125.19,14.08 L125.18,14.07 Z M141.79,15.24 C143.06,16.36 143.7,18.08 143.71,20.39 L143.71,28.65 L138.94,28.65 L138.94,26.71 C138.2,28.15 136.76,28.87 134.63,28.87 C133.62,28.9 132.62,28.7 131.69,28.28 C130.92,27.93 130.27,27.37 129.82,26.65 C129.39,25.95 129.17,25.13 129.19,24.31 C129.16,23.67 129.29,23.04 129.57,22.47 C129.85,21.9 130.27,21.41 130.78,21.04 C131.84,20.26 133.47,19.87 135.68,19.87 L138.56,19.87 C138.47,18.31 137.44,17.53 135.46,17.53 C134.74,17.53 134.02,17.65 133.34,17.87 C132.68,18.07 132.07,18.39 131.52,18.81 L129.79,15.3 C130.7,14.71 131.71,14.27 132.76,14.02 C133.89,13.73 135.05,13.57 136.22,13.57 C138.66,13.57 140.51,14.13 141.79,15.25 L141.79,15.24 Z M137.62,25.14 C138.08,24.84 138.42,24.38 138.59,23.86 L138.59,22.57 L136.38,22.57 C134.89,22.57 134.15,23.07 134.15,24.08 C134.15,24.29 134.19,24.5 134.28,24.69 C134.37,24.88 134.5,25.05 134.67,25.17 C135.08,25.46 135.57,25.61 136.07,25.58 C136.62,25.59 137.17,25.44 137.63,25.14 L137.62,25.14 Z M170.24,15.18 C171.3,16.27 171.84,17.92 171.84,20.13 L171.84,28.65 L166.72,28.65 L166.72,21.04 C166.79,20.22 166.59,19.39 166.14,18.7 C165.94,18.45 165.7,18.26 165.41,18.13 C165.13,18 164.82,17.94 164.51,17.96 C164.16,17.94 163.81,18.01 163.49,18.15 C163.17,18.29 162.88,18.51 162.65,18.78 C162.13,19.5 161.88,20.38 161.95,21.26 L161.95,28.65 L156.83,28.65 L156.83,21.04 C156.83,19.01 156.09,18.01 154.62,18.01 C154.27,17.99 153.91,18.06 153.59,18.2 C153.27,18.34 152.98,18.56 152.74,18.83 C152.22,19.54 151.97,20.43 152.04,21.31 L152.04,28.65 L146.93,28.65 L146.93,13.81 L151.8,13.81 L151.8,15.37 C152.34,14.78 153,14.31 153.73,14.02 C154.51,13.71 155.33,13.56 156.16,13.57 C157.11,13.56 158.04,13.76 158.91,14.16 C159.72,14.54 160.4,15.15 160.88,15.92 C161.45,15.17 162.2,14.58 163.06,14.2 C163.97,13.8 164.95,13.6 165.94,13.62 C166.72,13.58 167.51,13.69 168.25,13.97 C168.99,14.24 169.66,14.66 170.24,15.21 L170.24,15.18 Z M186.84,15.24 C188.11,16.36 188.75,18.08 188.75,20.39 L188.75,28.65 L183.98,28.65 L183.98,26.71 C183.24,28.15 181.81,28.87 179.67,28.87 C178.66,28.9 177.66,28.7 176.74,28.28 C175.97,27.93 175.32,27.37 174.86,26.65 C174.43,25.95 174.22,25.13 174.23,24.31 C174.2,23.67 174.33,23.04 174.61,22.47 C174.89,21.9 175.3,21.41 175.82,21.04 C176.88,20.26 178.51,19.87 180.72,19.87 L183.6,19.87 C183.52,18.31 182.48,17.53 180.51,17.53 C179.79,17.53 179.07,17.65 178.38,17.87 C177.72,18.07 177.1,18.39 176.55,18.81 L174.82,15.3 C175.73,14.71 176.74,14.27 177.8,14.02 C178.93,13.73 180.09,13.57 181.26,13.57 C183.7,13.57 185.56,14.13 186.83,15.25 L186.84,15.24 Z M182.66,25.14 C183.12,24.84 183.46,24.38 183.63,23.86 L183.63,22.57 L181.43,22.57 C179.94,22.57 179.19,23.07 179.19,24.08 C179.19,24.29 179.23,24.5 179.32,24.69 C179.41,24.88 179.54,25.05 179.71,25.17 C180.12,25.46 180.61,25.61 181.11,25.58 C181.66,25.59 182.2,25.44 182.67,25.14 L182.66,25.14 Z" id="Shape" fill="#101010"></path>
                <path d="M195.13,27.89 C193.98,27.28 193.02,26.36 192.36,25.23 C191.69,24.06 191.34,22.72 191.36,21.37 C191.34,20.02 191.68,18.68 192.36,17.52 C193.02,16.39 193.98,15.47 195.12,14.87 C196.37,14.21 197.76,13.89 199.16,13.92 C200.46,13.89 201.74,14.19 202.89,14.79 C203.93,15.35 204.78,16.23 205.3,17.3 L202.72,18.84 C202.35,18.2 201.81,17.68 201.17,17.32 C200.34,16.89 199.4,16.72 198.48,16.86 C197.56,16.99 196.69,17.41 196.02,18.06 C195.6,18.5 195.28,19.02 195.06,19.59 C194.85,20.16 194.75,20.77 194.78,21.38 C194.75,21.99 194.84,22.6 195.05,23.17 C195.26,23.74 195.58,24.26 196,24.7 C196.68,25.35 197.55,25.77 198.48,25.91 C199.41,26.04 200.36,25.88 201.19,25.44 C201.83,25.08 202.36,24.56 202.74,23.92 L205.32,25.45 C204.78,26.53 203.93,27.41 202.89,27.98 C201.75,28.59 200.47,28.89 199.19,28.86 C197.78,28.89 196.39,28.56 195.14,27.91 L195.13,27.89 Z M216.51,13.9 L216.51,17.15 C216.25,17.1 215.99,17.07 215.73,17.07 C215.17,17.04 214.6,17.12 214.07,17.33 C213.54,17.53 213.06,17.84 212.66,18.25 C211.87,19.17 211.47,20.38 211.55,21.6 L211.55,28.7 L208.19,28.7 L208.19,14.06 L211.39,14.06 L211.39,16.19 C212.38,14.67 214.08,13.91 216.51,13.91 L216.51,13.9 Z M233.36,14.05 L226.63,29.86 C226.19,31.18 225.39,32.34 224.32,33.21 C223.36,33.87 222.22,34.21 221.06,34.18 C220.34,34.18 219.62,34.06 218.94,33.82 C218.3,33.62 217.71,33.28 217.21,32.84 L218.55,30.33 C218.89,30.64 219.28,30.89 219.7,31.07 C220.12,31.25 220.58,31.34 221.03,31.34 C221.56,31.36 222.07,31.2 222.5,30.88 C222.98,30.44 223.35,29.89 223.58,29.28 L223.82,28.69 L217.55,14.05 L221.05,14.05 L225.56,24.86 L230.12,14.05 L233.36,14.05 Z M247.19,14.83 C248.28,15.44 249.18,16.35 249.79,17.45 C250.43,18.65 250.76,20 250.73,21.36 C250.76,22.72 250.44,24.08 249.8,25.28 C249.2,26.39 248.3,27.31 247.2,27.92 C246.05,28.55 244.76,28.86 243.45,28.85 C242.58,28.89 241.72,28.74 240.92,28.4 C240.12,28.06 239.41,27.54 238.83,26.89 L238.83,33.97 L235.46,33.97 L235.46,14.06 L238.67,14.06 L238.67,15.97 C239.22,15.28 239.93,14.75 240.73,14.41 C241.59,14.06 242.51,13.88 243.44,13.89 C244.75,13.88 246.04,14.2 247.19,14.83 Z M246.11,24.67 C246.52,24.23 246.83,23.71 247.04,23.14 C247.25,22.57 247.34,21.97 247.31,21.37 C247.34,20.76 247.24,20.16 247.04,19.59 C246.83,19.02 246.52,18.5 246.11,18.06 C245.72,17.64 245.24,17.32 244.71,17.1 C244.18,16.88 243.62,16.78 243.05,16.8 C242.28,16.8 241.53,17 240.87,17.38 C240.22,17.76 239.69,18.31 239.33,18.98 C238.96,19.73 238.76,20.55 238.76,21.38 C238.76,22.21 238.95,23.04 239.33,23.78 C239.68,24.45 240.21,25 240.87,25.38 C241.53,25.77 242.28,25.97 243.05,25.97 C243.62,25.98 244.19,25.87 244.71,25.65 C245.24,25.43 245.71,25.09 246.1,24.67 L246.11,24.67 Z M262.57,27.87 C262.15,28.21 261.66,28.47 261.13,28.61 C260.55,28.78 259.94,28.86 259.34,28.86 C258.01,28.95 256.69,28.5 255.68,27.61 C254.82,26.77 254.39,25.55 254.39,23.95 L254.39,16.92 L252.02,16.92 L252.02,14.19 L254.41,14.19 L254.41,10.86 L257.77,10.86 L257.77,14.19 L261.62,14.19 L261.62,16.93 L257.77,16.93 L257.77,23.87 C257.73,24.46 257.92,25.04 258.28,25.5 C258.47,25.7 258.7,25.85 258.95,25.96 C259.21,26.06 259.48,26.1 259.75,26.09 C260.43,26.12 261.09,25.91 261.64,25.5 L262.56,27.89 L262.57,27.87 Z M267.39,27.9 C266.25,27.29 265.3,26.37 264.66,25.24 C264,24.06 263.66,22.73 263.68,21.38 C263.66,20.03 264,18.7 264.66,17.53 C265.31,16.4 266.26,15.49 267.39,14.88 C268.61,14.25 269.96,13.93 271.33,13.93 C272.7,13.93 274.05,14.26 275.27,14.88 C276.41,15.49 277.35,16.41 278,17.53 C278.66,18.7 279,20.03 278.98,21.38 C279,22.73 278.66,24.07 278,25.24 C277.35,26.37 276.4,27.29 275.27,27.9 C274.05,28.53 272.7,28.85 271.33,28.85 C269.96,28.85 268.61,28.52 267.39,27.9 Z M274.39,24.67 C274.8,24.23 275.12,23.71 275.33,23.14 C275.54,22.57 275.63,21.97 275.61,21.36 C275.64,20.75 275.54,20.15 275.34,19.58 C275.13,19.01 274.81,18.49 274.4,18.05 C273.58,17.24 272.48,16.79 271.34,16.79 C270.2,16.79 269.1,17.24 268.28,18.05 C267.88,18.49 267.56,19.01 267.36,19.58 C267.16,20.15 267.06,20.75 267.09,21.36 C267.06,21.96 267.15,22.57 267.36,23.13 C267.56,23.7 267.88,24.22 268.28,24.66 C269.1,25.47 270.2,25.92 271.34,25.92 C272.48,25.92 273.58,25.47 274.4,24.66 L274.39,24.67 Z M19.2,0 L-2.84217094e-14,11.25 L-2.84217094e-14,33.75 L19.2,45 L38.39,33.75 L38.39,11.25 L19.2,0 Z M35.77,30.67 L20.51,21.73 L20.51,3.85 L35.77,12.79 L35.77,30.67 Z M17.89,3.86 L17.89,21.74 L2.64,30.68 L2.64,12.8 L17.89,3.86 Z M3.95,32.99 L19.21,24.05 L34.46,32.99 L19.21,41.92 L3.95,32.99 Z" id="Shape" fill="#525252"></path>
            </g>
        </g>
    </g>
</svg>