<?xml version="1.0" encoding="UTF-8"?>
<svg width="184px" height="37px" viewBox="0 0 184 37" version="1.1" xmlns="http://www.w3.org/2000/svg" xmlns:xlink="http://www.w3.org/1999/xlink">
    <title>webrazzi</title>
    <g id="Page-1" stroke="none" stroke-width="1" fill="none" fill-rule="evenodd">
        <g id="Artboard" transform="translate(-68.000000, -282.000000)">
            <g id="Group" transform="translate(68.000000, 282.000000)">
                <path d="M117.7,9.5 C121.78,9.5 124.72,10.55 126.58,12.37 C128.54,14.28 129.42,17.1 129.42,20.54 L129.42,32.2 C129.42,34.16 127.8,35.69 125.79,35.69 C123.63,35.69 122.21,34.21 122.21,32.68 L122.21,32.63 C120.4,34.59 116.45,35.88 112.82,35.88 C107.86,35.88 103.79,33.11 103.79,28.04 L103.79,27.94 C103.79,22.35 108.16,19.77 114.39,19.77 C117.04,19.77 120.4,20.2 122.26,20.82 L122.26,20.39 C122.26,17.38 120.34,15.71 116.62,15.71 C114.56,15.71 112.89,16 111.47,16.43 C111.03,16.57 110.73,16.62 110.39,16.62 C108.67,16.62 107.3,15.33 107.3,13.66 C107.3,12.37 108.14,11.27 109.31,10.84 C111.66,9.98 114.22,9.5 117.7,9.5 Z M102.89,9.5 C105.2,9.5 106.52,10.98 106.52,13.04 C106.52,14.95 105.24,16.1 103.72,16.44 C99.94,17.3 97.83,20.12 97.83,25.28 L97.83,32.06 C97.83,34.07 96.17,35.69 94.1,35.69 C92.03,35.69 90.37,34.07 90.37,32.06 L90.37,13.14 C90.37,11.13 92.04,9.51 94.1,9.51 C96.16,9.51 97.83,11.14 97.83,13.14 L97.83,14.29 C98.91,11.8 100.68,9.51 102.89,9.51 L102.89,9.5 Z M180.27,9.5 C182.33,9.5 184,11.13 184,13.13 L184,32.05 C184,34.06 182.33,35.68 180.27,35.68 C178.21,35.68 176.54,34.06 176.54,32.05 L176.54,13.14 C176.54,11.13 178.21,9.51 180.27,9.51 L180.27,9.5 Z M171.32,9.79 C173.43,9.79 174.95,10.98 174.95,12.71 L174.95,12.85 C174.95,14.24 174.33,14.94 173.28,16.39 L163.18,29.53 L172.83,29.53 C174.5,29.53 175.87,30.87 175.87,32.49 C175.87,34.11 174.5,35.41 172.83,35.41 L157.46,35.41 C155.35,35.41 153.83,34.22 153.83,32.49 L153.83,32.35 C153.83,30.96 154.23,30.18 155.33,28.81 L165.38,15.67 L155.75,15.67 C154.08,15.67 152.71,14.38 152.71,12.75 C152.71,11.12 154.09,9.79 155.75,9.79 L171.32,9.79 Z M148.18,9.79 C150.29,9.79 151.81,10.98 151.81,12.71 L151.81,12.85 C151.81,14.24 151.19,14.94 150.14,16.39 L140.05,29.53 L149.7,29.53 C151.37,29.53 152.74,30.87 152.74,32.49 C152.74,34.11 151.37,35.4 149.7,35.4 L134.33,35.4 C132.22,35.4 130.7,34.21 130.7,32.49 L130.7,32.35 C130.7,30.97 131.1,30.18 132.21,28.81 L142.26,15.67 L132.63,15.67 C130.96,15.67 129.59,14.38 129.59,12.75 C129.59,11.12 130.96,9.79 132.63,9.79 L148.2,9.79 L148.18,9.79 Z M116.15,24.13 C112.96,24.13 111,25.37 111,27.67 L111,27.77 C111,29.73 112.67,30.88 115.07,30.88 C118.56,30.88 122.35,29.01 122.35,26.39 L122.35,25.1 C121.07,24.52 117.96,24.14 116.15,24.14 L116.15,24.13 Z" id="Shape" fill="#555555"></path>
                <path d="M35.36,9.64 C36.16,9.64 36.85,9.91 37.43,10.45 C38.02,10.99 38.31,11.62 38.31,12.35 C38.31,13.02 38.06,14.02 37.56,15.37 L32.12,30.9 C31.65,32.22 31.28,33.17 31.02,33.75 C30.76,34.33 30.35,34.86 29.79,35.32 C29.23,35.78 28.46,36.01 27.48,36.01 C26.5,36.01 25.68,35.76 25.1,35.27 C24.52,34.78 24.1,34.18 23.82,33.46 C23.55,32.75 23.24,31.82 22.92,30.68 L19.12,18.05 L15.44,30.68 C14.95,32.44 14.42,33.77 13.85,34.66 C13.28,35.55 12.28,36 10.85,36 C10.12,36 9.5,35.86 8.99,35.58 C8.48,35.3 8.05,34.91 7.71,34.39 C7.37,33.88 7.07,33.27 6.81,32.56 C6.55,31.85 6.35,31.3 6.2,30.88 L0.81,15.37 C0.27,13.91 0,12.91 0,12.35 C0,11.65 0.29,11.03 0.85,10.47 C1.42,9.92 2.12,9.64 2.95,9.64 C4.06,9.64 4.8,9.94 5.19,10.55 C5.58,11.16 5.99,12.2 6.43,13.67 L10.77,28.16 L14.72,14.7 C15.14,13.29 15.46,12.33 15.66,11.82 C15.86,11.31 16.25,10.81 16.8,10.35 C17.36,9.88 18.13,9.65 19.1,9.65 C20.07,9.65 20.87,9.88 21.43,10.35 C21.99,10.82 22.39,11.32 22.61,11.87 C22.84,12.41 23.15,13.36 23.56,14.71 L27.51,28.17 L31.9,13.68 C32.19,12.64 32.43,11.88 32.61,11.41 C32.79,10.94 33.09,10.53 33.51,10.18 C33.93,9.82 34.54,9.64 35.34,9.64 L35.36,9.64 Z M50.05,9.59 C52.65,9.59 54.88,10.12 56.74,11.19 C58.6,12.26 59.99,13.64 60.92,15.33 C61.85,17.02 62.31,18.75 62.31,20.51 C62.31,22.14 61.83,23.2 60.87,23.68 C59.91,24.16 58.56,24.4 56.82,24.4 L43.8,24.4 C43.82,25.87 44.12,27.17 44.72,28.29 C45.31,29.42 46.1,30.26 47.08,30.83 C48.06,31.4 49.15,31.68 50.34,31.68 C51.14,31.68 51.86,31.59 52.52,31.41 C53.18,31.23 53.82,30.94 54.43,30.56 C55.05,30.17 55.62,29.76 56.14,29.31 C56.66,28.87 57.33,28.26 58.16,27.5 C58.5,27.22 58.99,27.07 59.62,27.07 C60.3,27.07 60.86,27.25 61.28,27.62 C61.7,27.98 61.91,28.5 61.91,29.17 C61.91,29.75 61.68,30.44 61.2,31.22 C60.73,32 60.02,32.75 59.07,33.48 C58.12,34.2 56.93,34.8 55.49,35.27 C54.05,35.75 52.4,35.98 50.53,35.98 C46.26,35.98 42.93,34.79 40.56,32.42 C38.19,30.04 37,26.82 37,22.75 C37,20.84 37.29,19.06 37.88,17.42 C38.47,15.78 39.32,14.38 40.44,13.21 C41.56,12.04 42.94,11.14 44.59,10.51 C46.23,9.88 48.05,9.57 50.05,9.57 L50.05,9.59 Z M66.22,0 C67.24,0 68.03,0.32 68.58,0.96 C69.13,1.6 69.41,2.52 69.41,3.7 L69.41,13.61 C70.66,12.34 71.94,11.37 73.24,10.7 C74.54,10.03 76.15,9.69 78.07,9.69 C80.28,9.69 82.22,10.2 83.88,11.22 C85.55,12.24 86.84,13.72 87.76,15.66 C88.68,17.6 89.14,19.9 89.14,22.56 C89.14,24.52 88.88,26.32 88.37,27.96 C87.86,29.6 87.12,31.02 86.14,32.22 C85.16,33.42 83.98,34.35 82.59,35.01 C81.2,35.67 79.67,36 77.99,36 C76.96,36 76,35.88 75.1,35.64 C74.2,35.4 73.43,35.09 72.8,34.7 C72.16,34.31 71.62,33.91 71.18,33.5 C70.73,33.09 70.14,32.47 69.41,31.65 L69.41,32.29 C69.41,33.51 69.11,34.43 68.51,35.06 C67.91,35.68 67.14,36 66.22,36 C65.3,36 64.52,35.69 63.96,35.06 C63.4,34.43 63.12,33.51 63.12,32.29 L63.12,3.99 C63.12,2.68 63.39,1.68 63.94,1.01 C64.48,0.34 65.24,0 66.22,0 Z M76.31,14.49 C75.04,14.49 73.91,14.83 72.92,15.5 C71.93,16.17 71.15,17.15 70.58,18.42 C70.01,19.7 69.73,21.21 69.73,22.97 C69.73,25.55 70.34,27.54 71.55,28.92 C72.76,30.31 74.35,31 76.32,31 C77.99,31 79.44,30.29 80.65,28.88 C81.86,27.46 82.47,25.43 82.47,22.79 C82.47,21.08 82.22,19.61 81.72,18.37 C81.21,17.13 80.5,16.18 79.57,15.51 C78.64,14.84 77.56,14.5 76.33,14.5 L76.31,14.49 Z M49.83,14.11 C48.17,14.11 46.81,14.67 45.74,15.78 C44.68,16.9 44.03,18.55 43.8,20.73 L55.87,20.73 C55.71,18.51 55.09,16.86 54.03,15.76 C52.96,14.66 51.56,14.11 49.82,14.11 L49.83,14.11 Z M180.2,0.28 C182.22,0.28 183.78,1.57 183.78,3.67 L183.78,3.76 C183.78,5.86 182.22,7.2 180.2,7.2 C178.18,7.2 176.62,5.86 176.62,3.76 L176.62,3.67 C176.62,3.44 176.64,3.22 176.68,3.01 L176.77,2.62 C177.2,1.15 178.55,0.28 180.2,0.28 Z" id="Shape" fill="#C9C9C9"></path>
            </g>
        </g>
    </g>
</svg>