<svg width="128" height="38" viewBox="0 0 128 38" fill="none" xmlns="http://www.w3.org/2000/svg">
<path fill-rule="evenodd" clip-rule="evenodd" d="M122.825 0.282227H4.89534C2.26004 0.282227 0.189453 2.35281 0.189453 4.98811V32.941C0.189453 35.4822 2.35416 37.6469 4.89534 37.6469H122.825C125.46 37.6469 127.531 35.5763 127.531 32.941V4.98811C127.625 2.35281 125.46 0.282227 122.825 0.282227Z" fill="#252A2F"/>
<path fill-rule="evenodd" clip-rule="evenodd" d="M27.3906 19.1989C27.3906 17.3166 28.4259 15.6225 30.12 14.5872C28.9906 13.1754 27.2965 12.3283 25.5082 12.2342C23.6259 12.046 21.7435 13.3636 20.8023 13.3636C19.767 13.3636 18.2612 12.2342 16.6612 12.3283C14.4965 12.4225 12.6141 13.5519 11.5788 15.3401C9.4141 19.0107 11.0141 24.4695 13.0847 27.4813C14.12 28.9872 15.3435 30.5872 16.9435 30.4931C18.5435 30.3989 19.1082 29.5519 20.9906 29.5519C22.8729 29.5519 23.4376 30.4931 25.0376 30.4931C26.7317 30.4931 27.767 28.9872 28.8023 27.5754C29.5553 26.5401 30.12 25.4107 30.4965 24.1872C28.7082 23.246 27.3906 21.3636 27.3906 19.1989Z" fill="white"/>
<path fill-rule="evenodd" clip-rule="evenodd" d="M24.2843 10.2582C25.2255 9.22294 25.6961 7.81118 25.5079 6.39941C24.0961 6.58765 22.7785 7.15236 21.8373 8.18765C20.8961 9.22294 20.4255 10.5406 20.5196 11.8582C22.0255 12.0465 23.3432 11.3877 24.2843 10.2582Z" fill="white"/>
<path d="M43.1073 8.18884C43.8603 8.18884 44.6132 8.4712 45.0838 8.94179C45.5544 9.41237 45.8367 10.2594 45.7426 10.9183C45.7426 12.7065 44.8014 13.7418 43.1073 13.7418H41.1309V8.09473H43.1073V8.18884ZM41.9779 13.083H43.0132C43.5779 13.083 44.0485 12.8947 44.425 12.5183C44.8014 12.1418 44.9897 11.5771 44.8956 11.1065C44.9897 10.5418 44.8014 10.0712 44.425 9.69473C44.0485 9.31826 43.5779 8.94179 43.0132 9.0359H41.9779V13.083Z" fill="white"/>
<path d="M46.7781 11.6706C46.684 10.9176 47.0604 10.1647 47.7193 9.78821C48.3781 9.41174 49.2251 9.41174 49.7898 9.78821C50.3546 10.1647 50.8251 10.9176 50.731 11.6706C50.8251 12.4235 50.4487 13.1764 49.7898 13.5529C49.131 13.9294 48.284 13.9294 47.6251 13.5529C47.0604 13.1764 46.684 12.5176 46.7781 11.6706ZM49.884 11.6706C49.884 10.7294 49.5075 10.2588 48.7546 10.2588C48.0016 10.2588 47.6251 10.8235 47.6251 11.6706C47.6251 12.6117 48.0016 13.1764 48.7546 13.1764C49.5075 13.1764 49.884 12.6117 49.884 11.6706Z" fill="white"/>
<path fill-rule="evenodd" clip-rule="evenodd" d="M56.0965 13.8359H55.2494L54.3083 10.73L53.3671 13.8359H52.52L51.3906 9.60059H52.2377L52.9906 12.8006L53.9318 9.60059H54.6847L55.5318 12.8006H55.6259L56.3789 9.60059H57.2259L56.0965 13.8359Z" fill="white"/>
<path fill-rule="evenodd" clip-rule="evenodd" d="M58.2598 9.59998H59.1068V10.2588H59.2009C59.3892 9.78821 59.9539 9.50586 60.4245 9.50586C60.8009 9.50586 61.2715 9.59998 61.5539 9.97645C61.8362 10.2588 61.9304 10.7294 61.9304 11.1059V13.8353H61.0833V11.2941C61.0833 10.6353 60.8009 10.2588 60.1421 10.2588C59.8598 10.2588 59.5774 10.3529 59.3892 10.5412C59.2009 10.7294 59.1068 11.0117 59.1068 11.2941V13.7412H58.2598V9.59998Z" fill="white"/>
<path fill-rule="evenodd" clip-rule="evenodd" d="M63.1562 7.90625H64.0034V13.8357H63.1562V7.90625Z" fill="white"/>
<path d="M65.1296 11.6706C65.0355 10.9176 65.412 10.1647 66.0708 9.78821C66.7296 9.41174 67.5767 9.41174 68.1414 9.78821C68.8002 10.1647 69.1767 10.9176 69.0826 11.6706C69.1767 12.4235 68.8002 13.1764 68.1414 13.5529C67.4826 13.9294 66.6355 13.9294 65.9767 13.5529C65.412 13.1764 65.0355 12.5176 65.1296 11.6706ZM68.3296 11.6706C68.3296 10.7294 67.9532 10.2588 67.2002 10.2588C66.4473 10.2588 66.0708 10.8235 66.0708 11.6706C66.0708 12.6117 66.4473 13.1764 67.2002 13.1764C67.8591 13.1764 68.3296 12.6117 68.3296 11.6706Z" fill="white"/>
<path d="M70.0254 12.6117C70.0254 11.8588 70.5901 11.3882 71.6254 11.3882L72.7548 11.2941V10.9176C72.7548 10.447 72.4725 10.2588 71.9077 10.2588C71.4372 10.2588 71.1548 10.447 71.0607 10.7294H70.2136C70.3077 9.97645 70.9666 9.50586 71.9077 9.50586C72.943 9.50586 73.6019 10.0706 73.6019 10.9176V13.8353H72.7548V13.2706H72.6607C72.3783 13.7412 71.9077 13.9294 71.343 13.9294C70.9666 13.9294 70.5901 13.8353 70.4019 13.647C70.2136 13.3647 70.0254 12.9882 70.0254 12.6117ZM72.7548 12.2353V11.9529L71.7195 12.047C71.1548 12.047 70.8725 12.3294 70.8725 12.6117C70.8725 12.9882 71.2489 13.1764 71.6254 13.1764C71.9077 13.1764 72.1901 13.0823 72.3783 12.9882C72.5666 12.8 72.7548 12.5176 72.7548 12.2353Z" fill="white"/>
<path d="M74.6367 11.671C74.6367 10.3533 75.2955 9.50625 76.425 9.50625C76.9897 9.50625 77.4603 9.7886 77.7426 10.2592H77.8367V7.90625H78.6838V13.8357H77.8367V13.1768H77.7426C77.4603 13.6474 76.9897 13.9298 76.425 13.9298C75.3897 13.9298 74.6367 13.0827 74.6367 11.671ZM75.5779 11.671C75.5779 12.6121 76.0485 13.0827 76.7073 13.0827C77.3661 13.0827 77.8367 12.518 77.8367 11.671C77.8367 10.8239 77.3661 10.2592 76.7073 10.2592C75.9544 10.2592 75.5779 10.8239 75.5779 11.671Z" fill="white"/>
<path d="M82.071 11.6706C81.9768 10.9176 82.3533 10.1647 83.0121 9.78821C83.671 9.41174 84.518 9.41174 85.0827 9.78821C85.7415 10.1647 86.118 10.9176 86.0239 11.6706C86.118 12.4235 85.7415 13.1764 85.0827 13.5529C84.4239 13.9294 83.5768 13.9294 82.918 13.5529C82.3533 13.1764 82.071 12.5176 82.071 11.6706ZM85.271 11.6706C85.271 10.7294 84.8945 10.2588 84.1415 10.2588C83.3886 10.2588 83.0121 10.8235 83.0121 11.6706C83.0121 12.6117 83.3886 13.1764 84.1415 13.1764C84.8004 13.1764 85.271 12.6117 85.271 11.6706Z" fill="white"/>
<path fill-rule="evenodd" clip-rule="evenodd" d="M87.248 9.59998H88.0951V10.2588H88.1892C88.3775 9.78821 88.9422 9.50586 89.4128 9.50586C89.7892 9.50586 90.2598 9.59998 90.5422 9.97645C90.8245 10.2588 90.9186 10.7294 90.9186 11.1059V13.8353H90.0716V11.2941C90.0716 10.6353 89.7892 10.2588 89.1304 10.2588C88.848 10.2588 88.5657 10.3529 88.3775 10.5412C88.1892 10.7294 88.0951 11.0117 88.0951 11.2941V13.7412H87.248V9.59998Z" fill="white"/>
<path fill-rule="evenodd" clip-rule="evenodd" d="M95.5316 8.56543V9.60072H96.4728V10.3537H95.5316V12.5184C95.5316 12.989 95.7199 13.1772 96.0963 13.1772C96.1905 13.1772 96.2846 13.1772 96.3787 13.1772V13.836C96.1905 13.836 96.0963 13.836 95.9081 13.836C94.9669 13.836 94.5905 13.5537 94.5905 12.7066V10.3537H93.9316V9.60072H94.5905V8.56543H95.5316Z" fill="white"/>
<path fill-rule="evenodd" clip-rule="evenodd" d="M97.6016 7.90625H98.4486V10.2592H98.5427C98.731 9.7886 99.2957 9.41213 99.8604 9.50625C100.237 9.50625 100.707 9.60037 100.99 9.97684C101.272 10.2592 101.366 10.7298 101.366 11.1063V13.8357H100.519V11.2945C100.519 10.6357 100.237 10.2592 99.578 10.2592C99.2957 10.2592 99.0133 10.3533 98.8251 10.5415C98.6369 10.7298 98.5427 11.0121 98.5427 11.2945V13.7415H97.6957L97.6016 7.90625Z" fill="white"/>
<path d="M106.168 12.7059C105.98 13.4588 105.133 14.0235 104.286 13.9294C103.721 13.9294 103.156 13.7412 102.78 13.2706C102.403 12.8941 102.215 12.3294 102.309 11.7647C102.215 11.2 102.403 10.6353 102.78 10.1647C103.156 9.69409 103.721 9.50586 104.286 9.50586C105.509 9.50586 106.168 10.3529 106.168 11.6706V11.9529H103.156C103.156 12.2353 103.25 12.6117 103.439 12.8C103.627 12.9882 104.003 13.1764 104.286 13.1764C104.662 13.2706 105.133 12.9882 105.321 12.7059H106.168ZM103.156 11.2941H105.321C105.321 11.0117 105.227 10.7294 105.039 10.5412C104.85 10.3529 104.568 10.2588 104.286 10.2588C104.003 10.2588 103.721 10.3529 103.533 10.5412C103.344 10.7294 103.156 11.0117 103.156 11.2941Z" fill="white"/>
<path d="M48.2826 25.5067H43.8591L42.8238 28.7067H40.9414L45.0826 17.0361H47.0591L51.2943 28.7067H49.412L48.2826 25.5067ZM44.3296 24.095H47.9061L46.1179 18.9185H46.0238L44.3296 24.095Z" fill="white"/>
<path d="M60.4219 24.4716C60.4219 27.1069 59.0101 28.801 56.8454 28.801C55.716 28.8952 54.6807 28.2363 54.2101 27.2952V31.5305H52.4219V20.2363H54.116V21.6481C54.6807 20.7069 55.716 20.1422 56.8454 20.1422C58.916 20.0481 60.4219 21.8363 60.4219 24.4716ZM58.5395 24.4716C58.5395 22.7775 57.6925 21.6481 56.2807 21.6481C54.963 21.6481 54.0219 22.7775 54.0219 24.4716C54.0219 26.1657 54.963 27.2952 56.2807 27.2952C57.6925 27.2952 58.5395 26.1657 58.5395 24.4716Z" fill="white"/>
<path d="M69.7422 24.4716C69.7422 27.1069 68.3304 28.801 66.1657 28.801C65.0363 28.8952 64.001 28.2363 63.5304 27.2952V31.5305H61.7422V20.2363H63.4363V21.6481C64.001 20.7069 65.0363 20.1422 66.1657 20.1422C68.3304 20.0481 69.7422 21.8363 69.7422 24.4716ZM67.954 24.4716C67.954 22.7775 67.1069 21.6481 65.6951 21.6481C64.3775 21.6481 63.4363 22.7775 63.4363 24.4716C63.4363 26.1657 64.3775 27.2952 65.6951 27.2952C67.1069 27.2952 67.954 26.1657 67.954 24.4716Z" fill="white"/>
<path fill-rule="evenodd" clip-rule="evenodd" d="M75.9516 25.4124C76.0457 26.5418 77.1751 27.2947 78.7751 27.2947C80.281 27.2947 81.3163 26.5418 81.3163 25.5065C81.3163 24.5653 80.6574 24.0947 79.1516 23.7182L77.6457 23.3418C75.481 22.7771 74.5398 21.8359 74.5398 20.2359C74.5398 18.2594 76.328 16.8477 78.7751 16.8477C81.2222 16.8477 82.9163 18.2594 83.0104 20.2359H81.2222C81.128 19.1065 80.1869 18.3535 78.7751 18.3535C77.3633 18.3535 76.4222 19.1065 76.4222 20.1418C76.4222 20.9888 77.081 21.4594 78.5869 21.8359L79.9045 22.1182C82.2575 22.683 83.2927 23.6241 83.2927 25.3182C83.2927 27.483 81.5045 28.8947 78.7751 28.8947C76.1398 28.8947 74.4457 27.5771 74.3516 25.4124H75.9516Z" fill="white"/>
<path fill-rule="evenodd" clip-rule="evenodd" d="M86.8708 18.165V20.1415H88.4708V21.5533H86.8708V26.2592C86.8708 27.0121 87.1531 27.2945 87.9061 27.2945C88.0943 27.2945 88.2825 27.2945 88.4708 27.2945V28.7062C88.1884 28.8003 87.812 28.8003 87.5296 28.8003C85.8355 28.8003 85.1767 28.1415 85.1767 26.5415V21.5533H83.9531V20.1415H85.1767V18.165H86.8708Z" fill="white"/>
<path d="M89.5059 24.471C89.5059 21.8357 91.1059 20.1416 93.5529 20.1416C96 20.1416 97.6 21.8357 97.6 24.471C97.6 27.2004 96 28.8004 93.5529 28.8004C91.0117 28.8004 89.5059 27.1063 89.5059 24.471ZM95.8117 24.471C95.8117 22.5887 94.9647 21.5534 93.5529 21.5534C92.1412 21.5534 91.2941 22.5887 91.2941 24.471C91.2941 26.3534 92.1412 27.3887 93.5529 27.3887C94.9647 27.3887 95.8117 26.2592 95.8117 24.471Z" fill="white"/>
<path fill-rule="evenodd" clip-rule="evenodd" d="M99.0101 20.1418H100.704V21.6476C100.892 20.7065 101.834 20.0476 102.775 20.1418C102.963 20.1418 103.151 20.1418 103.34 20.2359V21.8359C103.057 21.7418 102.869 21.6476 102.587 21.6476C102.116 21.6476 101.551 21.8359 101.269 22.2123C100.987 22.5888 100.704 23.1535 100.704 23.6241V28.7065H98.916L99.0101 20.1418Z" fill="white"/>
<path d="M111.436 26.1655C111.248 27.6714 109.648 28.8008 107.766 28.8008C105.319 28.8008 103.719 27.1067 103.719 24.4714C103.719 21.8361 105.225 20.0479 107.672 20.0479C110.025 20.0479 111.531 21.6479 111.531 24.2831V24.8479H105.507V24.942C105.413 25.6008 105.695 26.1655 106.072 26.6361C106.542 27.1067 107.107 27.389 107.766 27.2949C108.613 27.389 109.46 26.9184 109.742 26.0714L111.436 26.1655ZM105.507 23.6243H109.742C109.742 23.0596 109.554 22.4949 109.178 22.1184C108.801 21.742 108.236 21.4596 107.672 21.4596C107.107 21.4596 106.542 21.6479 106.166 22.1184C105.695 22.4949 105.507 23.0596 105.507 23.6243Z" fill="white"/>
</svg>
