<svg width="128" height="38" viewBox="0 0 128 38" fill="none" xmlns="http://www.w3.org/2000/svg">
<path fill-rule="evenodd" clip-rule="evenodd" d="M122.635 37.3163H4.70588C2.07059 37.3163 0 35.2432 0 32.6047V4.71166C0 2.16736 2.16471 0 4.70588 0H122.635C125.271 0 127.341 2.07313 127.341 4.71166V32.6989C127.341 35.2432 125.271 37.3163 122.635 37.3163Z" fill="#252A2F"/>
<path fill-rule="evenodd" clip-rule="evenodd" d="M44.7744 10.0408C44.7744 10.7947 44.492 11.4543 44.1155 11.9255C43.5508 12.3967 42.7979 12.6794 41.9508 12.6794C41.1979 12.6794 40.445 12.3967 39.8803 11.8313C39.3156 11.2659 39.0332 10.6062 39.0332 9.75814C39.0332 8.91004 39.3156 8.25041 39.8803 7.68501C40.445 7.11961 41.1038 6.83691 41.9508 6.83691C42.3273 6.83691 42.7038 6.93115 43.0803 7.11961C43.5508 7.21385 43.8332 7.40231 44.0214 7.68501L43.5508 8.15618C43.1744 7.77925 42.6097 7.49655 41.9508 7.49655C41.3861 7.49655 40.8214 7.77925 40.445 8.15618C39.9744 8.53311 39.7861 9.09851 39.7861 9.75814C39.7861 10.4178 39.9744 10.9832 40.445 11.3601C40.9156 11.737 41.3861 12.0197 41.9508 12.0197C42.6097 12.0197 43.0803 11.8313 43.5508 11.3601C43.8332 11.0774 44.0214 10.7005 44.0214 10.2293H41.9508V9.56967H44.6803C44.7744 9.75814 44.7744 9.85237 44.7744 10.0408Z" fill="white" stroke="white" stroke-width="0.625"/>
<path fill-rule="evenodd" clip-rule="evenodd" d="M49.0715 7.68551H46.5303V9.47593H48.8832V10.1356H46.5303V11.926H49.0715V12.5856H45.7773V6.93164H49.0715V7.68551Z" fill="white" stroke="white" stroke-width="0.625"/>
<path fill-rule="evenodd" clip-rule="evenodd" d="M52.1889 12.5856H51.4359V7.68551H49.8359V6.93164H53.7889V7.68551H52.1889V12.5856Z" fill="white" stroke="white" stroke-width="0.625"/>
<path fill-rule="evenodd" clip-rule="evenodd" d="M56.5781 12.5856V6.93164H57.3311V12.5856H56.5781Z" fill="white" stroke="white" stroke-width="0.625"/>
<path fill-rule="evenodd" clip-rule="evenodd" d="M60.5365 12.5856H59.7836V7.68551H58.1836V6.93164H62.1365V7.68551H60.5365V12.5856Z" fill="white" stroke="white" stroke-width="0.625"/>
<path d="M69.4453 11.8313C68.8806 12.3967 68.2217 12.6794 67.3747 12.6794C66.5276 12.6794 65.8688 12.3967 65.3041 11.8313C64.7394 11.2659 64.457 10.6062 64.457 9.75814C64.457 8.91004 64.7394 8.25041 65.3041 7.68501C65.8688 7.11961 66.5276 6.83691 67.3747 6.83691C68.2217 6.83691 68.8806 7.11961 69.4453 7.68501C70.01 8.25041 70.2923 8.91004 70.2923 9.75814C70.2923 10.6062 70.01 11.2659 69.4453 11.8313ZM65.8688 11.3601C66.2453 11.737 66.81 12.0197 67.3747 12.0197C67.9394 12.0197 68.5041 11.8313 68.8806 11.3601C69.3512 10.9832 69.5394 10.4178 69.5394 9.75814C69.5394 9.09851 69.3512 8.62734 68.9747 8.15618C68.5982 7.77925 68.0335 7.49655 67.4688 7.49655C66.81 7.49655 66.2453 7.77925 65.8688 8.15618C65.3982 8.62734 65.21 9.09851 65.21 9.75814C65.21 10.4178 65.3982 10.9832 65.8688 11.3601Z" fill="white" stroke="white" stroke-width="0.625"/>
<path fill-rule="evenodd" clip-rule="evenodd" d="M71.3438 12.5856V6.93164H72.1908L74.9201 11.3606H75.0142L74.9201 10.2298V6.93164H75.6731V12.5856H74.9201L72.0025 7.9682V9.099V12.5856H71.3438Z" fill="white" stroke="white" stroke-width="0.625"/>
<path d="M64.2809 20.7312C62.1162 20.7312 60.2338 22.4274 60.2338 24.689C60.2338 26.9506 62.0221 28.6468 64.2809 28.6468C66.5397 28.6468 68.328 26.9506 68.328 24.689C68.328 22.4274 66.5397 20.7312 64.2809 20.7312ZM64.2809 27.139C63.0574 27.139 62.0221 26.1025 62.0221 24.689C62.0221 23.2755 63.0574 22.2389 64.2809 22.2389C65.5044 22.2389 66.5397 23.1813 66.5397 24.689C66.5397 26.1025 65.5044 27.139 64.2809 27.139ZM55.528 20.7312C53.2691 20.7312 51.4809 22.4274 51.4809 24.689C51.4809 26.9506 53.2691 28.6468 55.528 28.6468C57.7868 28.6468 59.575 26.9506 59.575 24.689C59.575 22.4274 57.6927 20.7312 55.528 20.7312ZM55.528 27.139C54.3044 27.139 53.2691 26.1025 53.2691 24.689C53.2691 23.2755 54.3044 22.2389 55.528 22.2389C56.7515 22.2389 57.7868 23.1813 57.7868 24.689C57.7868 26.1025 56.7515 27.139 55.528 27.139ZM45.0809 21.9562V23.6524H49.128C49.0338 24.5948 48.6574 25.2544 48.1868 25.7255C47.6221 26.2909 46.6809 26.9506 45.0809 26.9506C42.5397 26.9506 40.6574 24.9717 40.6574 22.4274C40.6574 19.8831 42.6338 17.9042 45.0809 17.9042C46.3986 17.9042 47.4338 18.4696 48.1868 19.1292L49.4103 17.9042C48.375 16.9619 47.0574 16.208 45.175 16.208C41.6927 16.208 38.8691 18.9408 38.8691 22.3332C38.8691 25.7255 41.7868 28.4583 45.175 28.4583C47.0574 28.4583 48.4691 27.8929 49.5044 26.7621C50.6338 25.6313 51.0103 24.1236 51.0103 22.8043C51.0103 22.4274 51.0103 22.0505 50.9162 21.7678H45.0809V21.9562ZM87.8103 23.2755C87.4338 22.4274 86.4927 20.7312 84.328 20.7312C82.2574 20.7312 80.5633 22.3332 80.5633 24.689C80.5633 26.9506 82.2574 28.6468 84.5162 28.6468C86.3986 28.6468 87.4338 27.516 87.9044 26.8563L86.4927 25.914C86.0221 26.5736 85.4574 27.0448 84.5162 27.0448C83.6691 27.0448 83.0103 26.6679 82.5397 25.8198L87.9044 23.6524L87.8103 23.2755ZM82.3515 24.5948C82.3515 23.087 83.575 22.2389 84.4221 22.2389C85.0809 22.2389 85.7397 22.6159 85.928 23.087L82.3515 24.5948ZM77.928 28.4583H79.7162V16.7734H77.928V28.4583ZM75.1044 21.6735C74.6339 21.2024 73.8809 20.8254 72.9397 20.8254C70.9633 20.8254 69.0809 22.6159 69.0809 24.7832C69.0809 27.0448 70.9633 28.741 72.9397 28.741C73.8809 28.741 74.6338 28.3641 75.0103 27.7987H75.1044V28.3641C75.1044 29.8718 74.2574 30.7199 72.9397 30.7199C71.9044 30.7199 71.1515 29.966 70.9633 29.3064L69.4574 29.966C69.928 31.0026 71.0574 32.3219 73.0338 32.3219C75.1044 32.3219 76.8927 31.0968 76.8927 28.1756V21.0139H75.1986V21.6735H75.1044ZM73.0338 27.139C71.8103 27.139 70.775 26.1025 70.775 24.7832C70.775 23.3697 71.8103 22.3332 73.0338 22.3332C74.2574 22.3332 75.1986 23.3697 75.1986 24.7832C75.1986 26.1025 74.2574 27.139 73.0338 27.139ZM96.0927 16.7734H91.8574V28.4583H93.6456V24.0294H96.0927C98.0691 24.0294 99.9515 22.6159 99.9515 20.4485C99.9515 18.1869 97.975 16.7734 96.0927 16.7734ZM96.0927 22.4274H93.5515V18.4696H96.0927C97.4103 18.4696 98.1633 19.5062 98.1633 20.4485C98.1633 21.2966 97.4103 22.4274 96.0927 22.4274ZM107.01 20.7312C105.693 20.7312 104.375 21.2966 103.904 22.5216L105.504 23.1813C105.881 22.5216 106.446 22.3332 107.104 22.3332C108.046 22.3332 108.987 22.8986 108.987 23.8409V23.9351C108.704 23.7467 107.951 23.464 107.104 23.464C105.41 23.464 103.716 24.4063 103.716 26.1025C103.716 27.7044 105.128 28.6468 106.634 28.6468C107.857 28.6468 108.516 28.0814 108.893 27.516H108.987V28.4583H110.681V23.9351C110.587 21.862 108.987 20.7312 107.01 20.7312ZM106.822 27.139C106.257 27.139 105.41 26.8563 105.41 26.1967C105.41 25.2544 106.446 24.9717 107.293 24.9717C108.046 24.9717 108.422 25.1601 108.893 25.3486C108.704 26.3852 107.763 27.139 106.822 27.139ZM116.799 21.0139L114.822 26.1025H114.728L112.657 21.0139H110.775L113.881 28.0814L111.999 31.9449H113.881L118.681 20.9197H116.799V21.0139ZM100.893 28.4583H102.681V16.7734H100.893V28.4583Z" fill="white"/>
<path fill-rule="evenodd" clip-rule="evenodd" d="M25.4838 23.1172L21.625 19.2536V18.9709L25.4838 15.1074L25.5779 15.2016L30.1897 17.8401C31.5074 18.594 31.5074 19.819 30.1897 20.5729L25.4838 23.1172Z" fill="url(#paint0_linear_4087_449)"/>
<path fill-rule="evenodd" clip-rule="evenodd" d="M25.6457 23.0877L21.6928 19.1299L9.83398 30.7206C10.3046 31.1917 10.9634 31.1917 11.8105 30.8148L25.6457 23.0877Z" fill="url(#paint1_linear_4087_449)"/>
<path fill-rule="evenodd" clip-rule="evenodd" d="M25.6457 15.1502L11.8105 7.42305C10.9634 6.95189 10.3046 7.04612 9.83398 7.51729L21.5987 19.108L25.6457 15.1502Z" fill="url(#paint2_linear_4087_449)"/>
<path fill-rule="evenodd" clip-rule="evenodd" d="M9.87684 7.44531C9.59449 7.72801 9.40625 8.19918 9.40625 8.76458V29.4016C9.40625 29.967 9.59449 30.4382 9.87684 30.7209L9.97096 30.8151L21.6415 19.2245V18.9418L9.87684 7.44531Z" fill="url(#paint3_linear_4087_449)"/>
<defs>
<linearGradient id="paint0_linear_4087_449" x1="31.9314" y1="19.1123" x2="9.10302" y2="19.1123" gradientUnits="userSpaceOnUse">
<stop stop-color="#FFE000"/>
<stop offset="0.4087" stop-color="#FFBD00"/>
<stop offset="0.7754" stop-color="#FFA500"/>
<stop offset="1" stop-color="#FF9C00"/>
</linearGradient>
<linearGradient id="paint1_linear_4087_449" x1="13.5635" y1="22.7575" x2="-1.23275" y2="-2.41379" gradientUnits="userSpaceOnUse">
<stop stop-color="#FF3A44"/>
<stop offset="1" stop-color="#C31162"/>
</linearGradient>
<linearGradient id="paint2_linear_4087_449" x1="-2.97474" y1="31.8043" x2="3.62793" y2="20.5632" gradientUnits="userSpaceOnUse">
<stop stop-color="#32A071"/>
<stop offset="0.0685" stop-color="#2DA771"/>
<stop offset="0.4762" stop-color="#15CF74"/>
<stop offset="0.8009" stop-color="#06E775"/>
<stop offset="1" stop-color="#00F076"/>
</linearGradient>
<linearGradient id="paint3_linear_4087_449" x1="20.5836" y1="29.6452" x2="1.88929" y2="24.6201" gradientUnits="userSpaceOnUse">
<stop stop-color="#00A0FF"/>
<stop offset="0.0066" stop-color="#00A1FF"/>
<stop offset="0.2601" stop-color="#00BEFF"/>
<stop offset="0.5122" stop-color="#00D2FF"/>
<stop offset="0.7604" stop-color="#00DFFF"/>
<stop offset="1" stop-color="#00E3FF"/>
</linearGradient>
</defs>
</svg>
