<svg width="262" height="40" viewBox="0 0 262 40" fill="none" xmlns="http://www.w3.org/2000/svg">
<path d="M141.622 7.49167V16.2264H141.7C143.145 14.3296 145.208 13.3808 147.889 13.3808C149.085 13.3808 150.217 13.576 151.282 13.9655C152.348 14.3551 153.296 14.9425 154.123 15.7287C154.949 16.5139 155.597 17.4953 156.063 18.6736C156.532 19.8511 156.764 21.2115 156.764 22.7539C156.764 24.4924 156.445 26.1078 155.804 27.6001C155.163 29.0932 154.165 30.2883 152.812 31.1879C151.458 32.0866 149.779 32.5377 147.772 32.5377C144.874 32.5377 142.812 31.6152 141.582 29.7721H141.504V32.0602H136.001V7.49167H141.622ZM120.508 12.8678C131.201 12.8678 130.286 24.3435 130.286 24.3435H115.649C116.241 26.6272 118.209 28.1283 120.92 28.1283C124.186 28.1283 125.946 26.1568 125.946 26.1568L129.054 29.3295C127.454 30.9167 125.306 32.3668 120.873 32.3668C114.018 32.3668 110.363 27.8337 110.363 23.0289C110.363 18.224 113.105 12.8678 120.508 12.8678ZM253.653 12.8595C258.253 12.8595 261.177 14.612 261.177 14.612L259.288 18.6615C253.165 15.4888 250.393 17.725 250.393 18.8427C250.393 19.9612 251.489 20.0518 255.754 20.8379C260.019 21.6241 262 23.4057 262 26.2768C262 29.1479 259.531 32.3215 253.5 32.3215C247.467 32.3215 244.726 30.3869 244.726 30.3869L246.554 26.3674C251.276 29.3598 256.637 28.3917 256.637 26.6101C256.637 25.2726 254.855 24.9891 252.936 24.7652L252.11 24.6699C251.743 24.6267 251.38 24.5804 251.032 24.5242C248.595 24.1311 244.97 22.8323 244.97 19.0845C244.97 15.3375 249.053 12.8595 253.653 12.8595ZM226.719 6.21167V21.05L234.715 13.3732H241.25L233.325 20.9814L242.027 32.3217H235.538L229.588 24.5692L226.719 27.3225V32.3217H221.372V6.21167H226.719ZM207.556 12.7394C211.348 12.7394 214.669 14.6256 216.505 17.4527L211.984 20.1084C211.137 18.5009 209.471 17.4079 207.556 17.4079C204.779 17.4079 202.529 19.7013 202.529 22.5302C202.529 25.3582 204.779 27.6525 207.556 27.6525C209.383 27.6525 210.977 26.6561 211.858 25.17L216.398 27.7641C214.542 30.5025 211.278 32.3219 207.556 32.3219C201.776 32.3219 197.091 27.9374 197.091 22.5302C197.091 17.1221 201.776 12.7394 207.556 12.7394ZM182.708 12.7385C188.486 12.7385 193.173 17.123 193.173 22.5293C193.173 27.9374 188.486 32.321 182.708 32.321C176.927 32.321 172.243 27.9374 172.243 22.5293C172.243 17.123 176.927 12.7385 182.708 12.7385ZM87.6927 13.2828V32.1407H81.8889V13.2828H87.6927ZM76.6774 7.57099V12.2853H63.6992V18.541H75.1686V23.2105H63.6992V32.1404H57.8945V7.57099H76.6774ZM100.079 15.6393C100.079 15.6393 102.135 12.4209 106.385 12.9203V18.178C106.385 18.178 101.769 16.9997 100.079 21.7597V32.1397H94.5494V13.2826H99.8356L100.079 15.5039V15.6393ZM166.711 6.1204V32.0036H160.862V6.1204H166.711ZM146.198 17.5243C142.991 17.5243 141.386 19.4747 141.386 23.3774C141.386 24.8564 141.8 26.0972 142.625 27.0997C143.452 28.1013 144.697 28.6025 146.364 28.6025C147.474 28.6025 148.376 28.3132 149.069 27.7346C149.761 27.1551 150.252 26.4472 150.542 25.6092C150.833 24.772 150.978 23.9358 150.978 23.1012C150.978 21.4973 150.598 20.1686 149.837 19.1107C149.077 18.0528 147.863 17.5243 146.198 17.5243ZM182.708 17.4079C179.93 17.4079 177.68 19.7004 177.68 22.5293C177.68 25.3591 179.93 27.6525 182.708 27.6525C185.483 27.6525 187.733 25.3591 187.733 22.5293C187.733 19.7004 185.483 17.4079 182.708 17.4079ZM120.599 16.9771C117.771 16.9771 116.199 18.7191 115.668 20.9887H125.146C125.1 20.3987 124.164 16.9771 120.599 16.9771ZM84.7909 4.39746C86.6738 4.39746 88.2022 5.79829 88.2022 7.52535C88.2022 9.25242 86.6738 10.6532 84.7909 10.6532C82.9071 10.6532 81.3786 9.25242 81.3786 7.52535C81.3786 5.79829 82.9071 4.39746 84.7909 4.39746Z" fill="white"/>
<path d="M38.4982 0C39.3724 0 40.0811 0.708667 40.0811 1.58285V37.9885C40.0811 38.8627 39.3724 39.5713 38.4982 39.5713H1.58285C0.708667 39.5713 0 38.8627 0 37.9885V1.58285C0 0.708667 0.708667 0 1.58285 0H38.4982ZM20.0404 10.992L8.90681 28.5793H31.1741L20.0404 10.992Z" fill="white"/>
</svg>
