<svg width="221" height="53" viewBox="0 0 221 53" fill="none" xmlns="http://www.w3.org/2000/svg">
<path fill-rule="evenodd" clip-rule="evenodd" d="M9.38334 32.7766C9.38334 33.2143 9.73852 33.5693 10.1765 33.5693H17.9736C18.4116 33.5693 18.7667 33.2143 18.7667 32.7766V28.8809H22.6653C23.1031 28.8809 23.4584 28.526 23.4584 28.0882V24.9851C23.4584 24.5474 23.1031 24.1926 22.6653 24.1926H10.1765C9.73852 24.1926 9.38334 24.5474 9.38334 24.9851V32.7766ZM9.38334 15.5816C9.38334 15.144 9.02818 14.7891 8.5902 14.7891H0.793146C0.355165 14.7891 0 15.144 0 15.5816V23.3731C0 23.8109 0.355165 24.1657 0.793146 24.1657H3.89852C4.33651 24.1657 4.69167 23.8109 4.69167 23.3731V19.4773H8.5902C9.02818 19.4773 9.38334 19.1225 9.38334 18.6848V15.5816ZM14.075 43.7115C14.075 43.2738 13.7199 42.919 13.2818 42.919H10.1765C9.73852 42.919 9.38334 43.2738 9.38334 43.7115V46.8146C9.38334 47.2523 9.73852 47.6073 10.1765 47.6073H13.2818C13.7199 47.6073 14.075 47.2523 14.075 46.8146V43.7115ZM69.582 14.7891H61.7849C61.347 14.7891 60.9917 15.144 60.9917 15.5816V18.6848C60.9917 19.1225 61.347 19.4773 61.7849 19.4773H65.6834V23.3731C65.6834 23.8109 66.0386 24.1657 66.4766 24.1657H69.582C70.02 24.1657 70.3751 23.8109 70.3751 23.3731V15.5816C70.3751 15.144 70.02 14.7891 69.582 14.7891ZM60.1985 24.1657H47.7099C47.2718 24.1657 46.9167 24.5206 46.9167 24.9583V28.0615C46.9167 28.499 47.2718 28.854 47.7099 28.854H51.6084V32.7498C51.6084 33.1874 51.9636 33.5423 52.4016 33.5423H60.1985C60.6366 33.5423 60.9917 33.1874 60.9917 32.7498V24.9583C60.9917 24.5206 60.6366 24.1657 60.1985 24.1657ZM55.507 47.6341H51.6084V43.7384C51.6084 43.3007 51.2533 42.9458 50.8153 42.9458H46.9167V34.3618C46.9167 33.9241 46.5616 33.5693 46.1235 33.5693H42.2251V24.9851C42.2251 24.5474 41.8699 24.1926 41.432 24.1926H28.9432C28.5053 24.1926 28.15 24.5474 28.15 24.9851V33.5693H24.2516C23.8134 33.5693 23.4584 33.9241 23.4584 34.3618V42.9458H19.5599C19.1218 42.9458 18.7667 43.3007 18.7667 43.7384V47.6341H14.8682C14.4301 47.6341 14.075 47.9891 14.075 48.4268V51.5299C14.075 51.9676 14.4301 52.3224 14.8682 52.3224H22.6653C23.1031 52.3224 23.4584 51.9676 23.4584 51.5299V47.6341H27.3568C27.7949 47.6341 28.15 47.2793 28.15 46.8416V38.2574H42.2251V46.8416C42.2251 47.2793 42.5803 47.6341 43.0182 47.6341H46.9167V51.5299C46.9167 51.9676 47.2718 52.3224 47.7099 52.3224H55.507C55.9448 52.3224 56.3001 51.9676 56.3001 51.5299V48.4268C56.3001 47.9891 55.9448 47.6341 55.507 47.6341ZM60.1985 42.919H57.0933C56.6553 42.919 56.3001 43.2738 56.3001 43.7115V46.8146C56.3001 47.2523 56.6553 47.6073 57.0933 47.6073H60.1985C60.6366 47.6073 60.9917 47.2523 60.9917 46.8146V43.7115C60.9917 43.2738 60.6366 42.919 60.1985 42.919Z" fill="white"/>
<path fill-rule="evenodd" clip-rule="evenodd" d="M19.5568 14.7889H50.8122C51.2501 14.7889 51.6054 14.4337 51.6054 13.9957V10.8904C51.6054 10.4522 51.2501 10.0972 50.8122 10.0972H46.9137V6.19868C46.9137 5.76072 46.5585 5.40554 46.1205 5.40554H42.2219V1.50702C42.2219 1.06904 41.8668 0.713867 41.4288 0.713867H28.9401C28.5021 0.713867 28.1469 1.06904 28.1469 1.50702V5.40554H24.2484C23.8105 5.40554 23.4552 5.76072 23.4552 6.19868V10.0972H19.5568C19.1188 10.0972 18.7637 10.4522 18.7637 10.8904V13.9957C18.7637 14.4337 19.1188 14.7889 19.5568 14.7889Z" fill="white"/>
<path fill-rule="evenodd" clip-rule="evenodd" d="M146.525 23.6985C144.056 23.6985 141.827 24.7139 140.258 26.3423C138.725 24.7076 136.542 23.6859 134.122 23.6859C132.765 23.6859 131.379 24.1831 130.311 24.9014V24.6634C130.311 24.32 130.026 24.0588 129.695 24.0588H126.253C125.923 24.0588 125.636 24.32 125.636 24.6634V41.8106C125.636 42.1539 125.921 42.4152 126.253 42.4152H129.703C130.032 42.4152 130.32 42.1539 130.32 41.8106V32.0741C130.32 29.976 132.023 28.2781 134.122 28.2781C136.223 28.2781 137.925 29.9781 137.925 32.0741V41.8106C137.925 42.1539 138.21 42.4152 138.541 42.4152H141.911C141.92 42.4152 141.926 42.4152 141.93 42.4152H142.006C142.336 42.4152 142.623 42.1539 142.623 41.8106V32.0804C142.623 29.9928 144.362 28.2867 146.525 28.2867C148.687 28.2867 150.426 29.9928 150.426 32.0804V41.8085C150.426 42.1518 150.711 42.4131 151.043 42.4131H154.506C154.837 42.4131 155.122 42.1518 155.122 41.8085V32.0804C155.12 27.444 151.265 23.6985 146.525 23.6985ZM172.338 32.9084C171.024 32.1099 169.337 31.7265 167.866 31.3937L167.837 31.3874C166.769 31.1451 165.831 30.9303 165.155 30.6144C164.486 30.3025 164.182 29.9444 164.182 29.4516C164.182 29.026 164.342 28.6489 164.723 28.3518C165.113 28.0465 165.76 27.8106 166.758 27.7515C168.459 27.7515 169.777 27.7915 170.669 27.8315C171.116 27.8506 171.456 27.8715 171.682 27.8864C171.796 27.8948 171.882 27.8989 171.94 27.9031C171.969 27.9052 171.99 27.9073 172.003 27.9073L172.017 27.9096H172.022L172.037 27.9117H172.051C172.316 27.9117 172.556 27.861 172.72 27.6904C172.865 27.5388 172.896 27.345 172.909 27.2501C172.909 27.2438 172.911 27.2375 172.911 27.2334C172.917 27.1934 172.922 27.1638 172.927 27.1364L172.936 27.1006V24.9877C172.936 24.7308 172.919 24.4949 172.82 24.3136C172.698 24.0883 172.493 24.0167 172.328 23.9809L172.312 23.9788L172.298 23.9767H172.291L172.275 23.9744C172.261 23.9723 172.24 23.9702 172.212 23.9681C172.154 23.9618 172.07 23.9535 171.959 23.943C171.732 23.9218 171.395 23.8944 170.938 23.867C170.027 23.8123 168.642 23.7575 166.745 23.7575H166.739H166.732C164.305 23.8481 162.463 24.5221 161.224 25.5882C159.981 26.6561 159.368 28.097 159.368 29.6559C159.368 30.6818 159.605 31.5222 160.023 32.2152C160.439 32.9063 161.023 33.4308 161.691 33.8415C163.007 34.6484 164.69 35.038 166.158 35.3772L166.189 35.3835C167.258 35.6299 168.198 35.8491 168.874 36.1692C169.542 36.4852 169.851 36.8497 169.851 37.3574C169.851 37.7807 169.654 38.1578 169.18 38.4465C168.685 38.7455 167.885 38.9456 166.708 38.9456C165.369 38.9456 163.908 38.8024 162.776 38.6571C162.21 38.5855 161.731 38.5118 161.391 38.457C161.221 38.4295 161.087 38.4063 160.995 38.3916C160.971 38.3875 160.949 38.3833 160.931 38.3812C160.916 38.3791 160.9 38.377 160.891 38.3749L160.865 38.3705L160.857 38.3684L160.828 38.3621H160.797C160.557 38.3621 160.329 38.4063 160.168 38.5686C160.026 38.7097 159.996 38.8973 159.983 38.9835C159.981 38.99 159.981 38.9963 159.981 39.0005C159.971 39.0468 159.965 39.0763 159.958 39.1058L159.95 39.1395L159.818 41.5241V41.5325C159.818 41.6883 159.841 41.8738 159.926 42.0402C160.012 42.2171 160.168 42.3752 160.407 42.4362L160.415 42.4383L160.425 42.4404L160.434 42.3857C160.425 42.4404 160.425 42.4404 160.425 42.4404H160.426L160.433 42.4426C160.436 42.4447 160.446 42.4447 160.455 42.4468C160.475 42.451 160.504 42.4552 160.542 42.4636C160.618 42.4784 160.728 42.4973 160.873 42.5205C161.165 42.5668 161.589 42.6279 162.139 42.6911C163.232 42.8153 164.811 42.9376 166.753 42.9376H166.769C167.008 42.9397 168.948 42.9543 170.841 42.2446C171.791 41.8885 172.749 41.3429 173.472 40.5045C174.201 39.6598 174.672 38.5328 174.672 37.054C174.672 36.0386 174.433 35.2045 174.015 34.5178C173.593 33.831 173.007 33.3129 172.338 32.9084ZM211.249 24.0693C209.322 24.0693 207.521 24.6107 206.008 25.548V17.6915C206.008 17.3482 205.723 17.0869 205.39 17.0869H201.936C201.607 17.0869 201.32 17.3482 201.32 17.6915V41.8148C201.32 42.1581 201.605 42.4194 201.936 42.4194H205.39C205.721 42.4194 206.008 42.1581 206.008 41.8148V41.0122C207.435 42.1244 209.327 42.9355 211.249 42.9355C216.625 42.9355 221 38.7224 221 33.5024C221 28.2823 216.625 24.0693 211.249 24.0693ZM211.249 38.3812C208.463 38.3812 206.201 36.1967 206.201 33.5024C206.201 30.8081 208.461 28.6236 211.249 28.6236C214.036 28.6236 216.297 30.8081 216.297 33.5024C216.297 36.1967 214.04 38.3812 211.249 38.3812ZM196.006 24.0693H192.543C192.211 24.0693 191.925 24.3305 191.925 24.6739V34.6463C191.925 36.7044 190.19 38.3916 188.024 38.3916C188.014 38.3916 188.005 38.3916 187.995 38.3916C187.984 38.3916 187.976 38.3916 187.964 38.3916C185.798 38.3916 184.063 36.7044 184.063 34.6463V24.6739C184.063 24.3305 183.778 24.0693 183.447 24.0693H179.984C179.652 24.0693 179.367 24.3305 179.367 24.6739V34.6463C179.367 39.2343 183.228 42.9334 187.964 42.9334C187.976 42.9334 187.984 42.9334 187.995 42.9334C188.005 42.9334 188.014 42.9334 188.024 42.9334C192.761 42.9334 196.622 39.2343 196.622 34.6463V24.6739C196.622 24.3305 196.336 24.0693 196.006 24.0693ZM96.6753 32.9084C95.36 32.1099 93.673 31.7265 92.2034 31.3937L92.1738 31.3874C91.1055 31.1451 90.168 30.9303 89.4924 30.6144C88.8231 30.3025 88.5191 29.9444 88.5191 29.4516C88.5191 29.026 88.6795 28.6489 89.0595 28.3518C89.4501 28.0465 90.0962 27.8106 91.0948 27.7515C92.7966 27.7515 94.1143 27.7915 95.0051 27.8315C95.4529 27.8506 95.7928 27.8715 96.0186 27.8864C96.1326 27.8948 96.2192 27.8989 96.2763 27.9031C96.3059 27.9052 96.327 27.9073 96.3396 27.9073L96.3544 27.9096H96.3586L96.3734 27.9117H96.3883C96.6521 27.9117 96.8927 27.861 97.0576 27.6904C97.2032 27.5388 97.2327 27.345 97.2455 27.2501C97.2455 27.2438 97.2475 27.2375 97.2475 27.2334C97.2538 27.1934 97.258 27.1638 97.2645 27.1364L97.2729 27.1006V24.9877C97.2729 24.7308 97.2559 24.4949 97.1567 24.3136C97.0343 24.0883 96.8295 24.0167 96.6649 23.9809L96.65 23.9788L96.6352 23.9767H96.6289L96.612 23.9744C96.5973 23.9723 96.5762 23.9702 96.5486 23.9681C96.4916 23.9618 96.4071 23.9535 96.2952 23.943C96.0694 23.9218 95.7315 23.8944 95.2754 23.867C94.3634 23.8123 92.9782 23.7575 91.0822 23.7575H91.076H91.0695C88.6415 23.8481 86.8003 24.5221 85.5609 25.5882C84.3194 26.6561 83.707 28.097 83.707 29.6559C83.707 30.6818 83.9436 31.5222 84.3617 32.2152C84.7776 32.9063 85.3624 33.4308 86.0296 33.8415C87.3451 34.6484 89.03 35.038 90.4975 35.3772L90.527 35.3835C91.5974 35.6299 92.537 35.8491 93.2127 36.1692C93.8799 36.4852 94.1902 36.8497 94.1902 37.3574C94.1902 37.7807 93.9938 38.1578 93.5188 38.4465C93.0247 38.7455 92.2246 38.9456 91.0463 38.9456C89.7077 38.9456 88.2467 38.8024 87.115 38.6571C86.5491 38.5855 86.0697 38.5118 85.7298 38.457C85.5609 38.4295 85.4258 38.4063 85.335 38.3916C85.3096 38.3875 85.2885 38.3833 85.2695 38.3812C85.2548 38.3791 85.24 38.377 85.2295 38.3749L85.204 38.3705L85.1956 38.3684L85.1661 38.3621H85.1343C84.8937 38.3621 84.6657 38.4063 84.5052 38.5686C84.3638 38.7097 84.3321 38.8973 84.3194 38.9835C84.3173 38.99 84.3173 38.9963 84.3173 39.0005C84.3089 39.0468 84.3025 39.0763 84.2962 39.1058L84.2878 39.1395L84.1505 41.522V41.5304C84.1505 41.6862 84.1738 41.8717 84.2581 42.0381C84.3447 42.215 84.501 42.3729 84.7395 42.4341L84.7481 42.4362L84.7565 42.4383L84.7669 42.3836C84.7565 42.4383 84.7565 42.4383 84.7565 42.4383H84.7586L84.7648 42.4404C84.7692 42.4426 84.7776 42.4425 84.7881 42.4447C84.8071 42.4489 84.8368 42.4531 84.8747 42.4615C84.9506 42.4762 85.0605 42.4952 85.2063 42.5184C85.4975 42.5647 85.922 42.6258 86.471 42.689C87.5646 42.8132 89.144 42.9355 91.0864 42.9355H91.1013C91.3398 42.9376 93.2801 42.9522 95.1742 42.2425C96.1243 41.8864 97.0829 41.3408 97.8049 40.5024C98.5334 39.6577 99.0042 38.5307 99.0042 37.0519C99.0042 36.0365 98.7657 35.2024 98.3476 34.5157C97.9294 33.831 97.3446 33.3129 96.6753 32.9084ZM120.329 24.0693H116.866C116.534 24.0693 116.249 24.3305 116.249 24.6739V34.6463C116.249 36.7044 114.514 38.3916 112.347 38.3916C112.337 38.3916 112.329 38.3916 112.318 38.3916C112.307 38.3916 112.299 38.3916 112.288 38.3916C110.122 38.3916 108.386 36.7044 108.386 34.6463V24.6739C108.386 24.3305 108.102 24.0693 107.77 24.0693H104.307C103.976 24.0693 103.691 24.3305 103.691 24.6739V34.6463C103.691 39.2343 107.55 42.9334 112.288 42.9334C112.299 42.9334 112.307 42.9334 112.318 42.9334C112.329 42.9334 112.337 42.9334 112.347 42.9334C117.083 42.9334 120.945 39.2343 120.945 34.6463V24.6739C120.945 24.3305 120.66 24.0693 120.329 24.0693Z" fill="white"/>
</svg>
