<svg width="236" height="32" viewBox="0 0 236 32" fill="none" xmlns="http://www.w3.org/2000/svg">
<path d="M50.3948 31.7058V0.0193865C51.2093 0.0193865 52.0158 0.176444 52.7683 0.481493C53.5208 0.786541 54.2046 1.23351 54.7805 1.79716C55.3565 2.36082 55.8133 3.03011 56.125 3.76657C56.4366 4.50302 56.5971 5.29227 56.5971 6.0894V31.7211L50.3948 31.7058Z" fill="#32BDD3"/>
<path d="M1.22656e-06 31.7055V6.07374C-0.000511244 5.27629 0.159568 4.48668 0.471034 3.74979C0.7825 3.0129 1.23929 2.34314 1.81528 1.77908C2.39127 1.21502 3.07512 0.76758 3.82788 0.462293C4.58063 0.157005 5.38745 -1.57717e-07 6.20228 0V31.7055H1.22656e-06Z" fill="#32BDD3"/>
<path d="M8.92505 0C10.8599 0.00137437 12.7468 0.589256 14.3262 1.68308C15.9056 2.77691 17.0999 4.32294 17.7449 6.10823L26.9274 31.6864C25.1279 31.6858 23.3719 31.1446 21.8965 30.1363C20.4212 29.1279 19.2974 27.701 18.6771 26.0478L8.92505 0Z" fill="#32BDD3"/>
<path d="M47.6641 0C45.7292 0.00137437 43.8424 0.589256 42.263 1.68308C40.6836 2.77691 39.4893 4.32294 38.8444 6.10823L29.6579 31.6864C31.4575 31.6863 33.2138 31.1454 34.6893 30.137C36.1647 29.1286 37.2883 27.7013 37.9081 26.0478L47.6641 0Z" fill="#32BDD3"/>
<path d="M110.92 29.0488H120.481V31.7211H107.753V13.4421H120.262V16.1144H110.901V20.9782H120.067V23.6506H110.901L110.92 29.0488Z" fill="#32BDD3"/>
<path d="M139.895 13.4384V16.1107H133.876V31.7211H130.705V16.1107H124.682V13.4384H139.895Z" fill="#32BDD3"/>
<path d="M186.85 29.0488H196.411V31.7211H183.678V13.4421H196.188V16.1144H186.85V20.9782H196.017V23.6506H186.85V29.0488Z" fill="#32BDD3"/>
<path d="M201.997 26.1399H205.289C205.609 28.377 207.38 29.4803 209.666 29.4803C212.638 29.4803 214.284 28.335 214.284 26.6667C214.284 24.9373 212.934 24.4791 210.18 23.8759L207.672 23.3491C204.653 22.7001 202.562 21.2074 202.562 18.3862C202.562 15.355 205.636 13.1409 209.541 13.1409C213.793 13.1409 216.422 15.2367 216.952 18.2412H213.66C213.118 16.4393 211.596 15.668 209.529 15.668C207.462 15.668 205.722 16.6073 205.722 18.0962C205.722 19.585 206.826 20.1155 209.556 20.7187L212.037 21.2494C215.673 22.0435 217.42 23.4599 217.42 26.3231C217.42 29.759 214.3 32 209.58 32C205.488 32.0076 202.539 29.7933 201.997 26.1399Z" fill="#32BDD3"/>
<path d="M236 13.4384V16.1107H229.981V31.7211H226.81V16.1107H220.787V13.4384H236Z" fill="#32BDD3"/>
<path d="M78.1763 13.4384H81.3477V31.7172H78.1763V13.4384ZM97.8483 31.7172H101.031V13.4384H97.86L97.8483 31.7172ZM86.3369 31.7172H89.5082L84.6166 13.4384H81.4492L86.3369 31.7172ZM97.7273 13.4384H94.5559L89.6682 31.7172H92.8396L97.7273 13.4384Z" fill="#32BDD3"/>
<path d="M160.016 13.4384H163.183L169.245 31.7172H166.074L160.016 13.4384ZM178.634 13.4384H175.463L169.405 31.7172H172.573L178.634 13.4384Z" fill="#32BDD3"/>
<path d="M156.029 31.721H159.197L153.139 13.4384H149.967L153.466 23.9941H146.308L149.807 13.4384H146.64L140.578 31.721H143.749L145.431 26.6436H154.344L156.029 31.721Z" fill="#32BDD3"/>
</svg>
