<svg width="35" height="35" viewBox="0 0 35 35" fill="none" xmlns="http://www.w3.org/2000/svg">
<path d="M28.2359 0.0830078H6.96223C3.22659 0.0830078 0.198242 3.11162 0.198242 6.8476V28.1232C0.198242 31.8592 3.22659 34.8878 6.96223 34.8878H28.2359C31.9716 34.8878 34.9999 31.8592 34.9999 28.1232V6.8476C34.9999 3.11162 31.9716 0.0830078 28.2359 0.0830078Z" fill="black"/>
<path d="M26.5977 23.8133V10.7334C27.2619 10.7334 27.899 10.9973 28.3687 11.4671C28.8384 11.9368 29.1023 12.574 29.1023 13.2383V23.8133H26.5977Z" fill="white"/>
<path d="M6.24805 23.8133V13.2365C6.24852 12.5725 6.5126 11.9358 6.98227 11.4665C7.45193 10.9971 8.08876 10.7334 8.75273 10.7334V23.8133H6.24805Z" fill="white"/>
<path d="M9.854 10.7334C10.6369 10.7342 11.4001 10.9783 12.0383 11.4317C12.6765 11.8852 13.158 12.5258 13.4164 13.2648L17.1309 23.8222C16.4038 23.8235 15.694 23.6006 15.098 23.1841C14.5021 22.7675 14.0489 22.1775 13.8003 21.4941L9.854 10.7334Z" fill="white"/>
<path d="M25.4978 10.7334C24.7162 10.7334 23.9539 10.9762 23.3161 11.428C22.6783 11.8799 22.1965 12.5186 21.9372 13.256L18.2227 23.8133C18.9498 23.8146 19.6596 23.5918 20.2556 23.1753C20.8515 22.7587 21.3047 22.1686 21.5533 21.4853L25.4978 10.7334Z" fill="white"/>
</svg>
