<?xml version="1.0" encoding="UTF-8"?>
<svg width="57px" height="32px" viewBox="0 0 57 32" version="1.1" xmlns="http://www.w3.org/2000/svg" xmlns:xlink="http://www.w3.org/1999/xlink">
    <title>Group</title>
    <g id="Page-1" stroke="none" stroke-width="1" fill="none" fill-rule="evenodd">
        <g id="Group" transform="translate(-0.000000, 0.000000)" fill="#32BDD3" fill-rule="nonzero">
            <path d="M50.3948,31.7058 L50.3948,0.0193865 C51.2093,0.0193865 52.0158,0.176444 52.7683,0.481493 C53.5208,0.786541 54.2046,1.23351 54.7805,1.79716 C55.3565,2.36082 55.8133,3.03011 56.125,3.76657 C56.4366,4.50302 56.5971,5.29227 56.5971,6.0894 L56.5971,31.7211 L50.3948,31.7058 Z" id="Path"></path>
            <path d="M-8.8817842e-16,31.7055 L-8.8817842e-16,6.07374 C-0.000511243999,5.27629 0.159568,4.48668 0.471034,3.74979 C0.7825,3.0129 1.23929,2.34314 1.81528,1.77908 C2.39127,1.21502 3.07512,0.76758 3.82788,0.462293 C4.58063,0.157005 5.38745,0 6.20228,0 L6.20228,31.7055 L-8.8817842e-16,31.7055 Z" id="Path"></path>
            <path d="M8.92505,0 C10.8599,0.00137437 12.7468,0.589256 14.3262,1.68308 C15.9056,2.77691 17.0999,4.32294 17.7449,6.10823 L26.9274,31.6864 C25.1279,31.6858 23.3719,31.1446 21.8965,30.1363 C20.4212,29.1279 19.2974,27.701 18.6771,26.0478 L8.92505,0 Z" id="Path"></path>
            <path d="M47.6641,0 C45.7292,0.00137437 43.8424,0.589256 42.263,1.68308 C40.6836,2.77691 39.4893,4.32294 38.8444,6.10823 L29.6579,31.6864 C31.4575,31.6864 33.2138,31.1454 34.6893,30.137 C36.1647,29.1286 37.2883,27.7013 37.9081,26.0478 L47.6641,0 Z" id="Path"></path>
        </g>
    </g>
</svg>